<?xml version="1.0" standalone="no"?><!DOCTYPE svg PUBLIC "-//W3C//DTD SVG 1.1//EN" "http://www.w3.org/Graphics/SVG/1.1/DTD/svg11.dtd" ><svg xmlns="http://www.w3.org/2000/svg"><metadata></metadata><defs>
<font id="Molot" >
<font-face font-family="Molot" font-stretch="normal" units-per-em="1000" weight="400" panose-1="2,0,5,6,0,0,0,2,0,4" ascent="945" descent="-200" x-height="700" underline-thickness="50" underline-position="-75" unicode-range="U+00000032-00008364" bbox="0,-200,911,945" />
<missing-glyph horiz-adv-x="490" d="" />
<glyph glyph-name="space" unicode="&#x20;" horiz-adv-x="490" d="" />
<glyph glyph-name="exclam" unicode="&#x21;" horiz-adv-x="300" d="M52 175L52 0L249 0L249 175ZM63 248L237 248L270 613L270 700L30 700L30 613Z" />
<glyph glyph-name="numbersign" unicode="&#x23;" horiz-adv-x="740" d="M301 419L439 419L439 280L301 280ZM159 0L301 0L301 139L439 139L439 0L581 0L581 139L720 139L720 280L581 280L581 419L720 419L720 560L581 560L581 700L439 700L439 560L301 560L301 700L159 700L159 560L20 560L20 419L159 419L159 280L20 280L20 139L159 139Z" />
<glyph glyph-name="dollar" unicode="&#x24;" horiz-adv-x="508" d="M79 348L269 221L269 175L20 175L20 0L186 0L186 -74L322 -74L322 0L400 0C452 0 488 36 488 87L488 246C488 302 477 333 429 365L239 492L239 524L453 524L488 613L488 700L322 700L322 775L186 775L186 700L107 700C56 700 20 663 20 612L20 466C20 410 31 380 79 348Z" />
<glyph glyph-name="ampersand" unicode="&#x26;" horiz-adv-x="594" d="M305 271L305 175L248 175L248 271ZM117 0L436 0C488 0 524 36 524 88L524 271L584 271L584 446L248 446L248 525L490 525L524 613L524 700L117 700C66 700 30 663 30 612L30 453C30 401 72 368 119 368L119 349C72 349 30 316 30 265L30 88C30 36 66 0 117 0Z" />
<glyph glyph-name="parenleft" unicode="&#x28;" horiz-adv-x="251" d="M251 -53L239 -53C193 -53 181 -31 181 13L181 685C181 730 193 751 239 751L251 751L251 884L239 884C97 884 40 823 40 683L40 16C40 -124 97 -186 239 -186L251 -186Z" />
<glyph glyph-name="parenright" unicode="&#x29;" horiz-adv-x="251" d="M0 -53L0 -186L12 -186C154 -186 211 -124 211 16L211 683C211 823 154 884 12 884L0 884L0 751L12 751C58 751 70 730 70 685L70 13C70 -31 58 -53 12 -53Z" />
<glyph glyph-name="asterisk" unicode="&#x2a;" horiz-adv-x="451" d="M174 576L72 610L40 513L143 479L80 392L162 332L226 419L289 332L371 392L308 479L411 513L379 610L277 576L277 684L174 684Z" />
<glyph glyph-name="plus" unicode="&#x2b;" horiz-adv-x="534" d="M20 420L20 279L196 279L196 102L337 102L337 279L514 279L514 420L337 420L337 596L196 596L196 420Z" />
<glyph glyph-name="comma" unicode="&#x2c;" horiz-adv-x="277" d="M237 31L237 175L40 175L40 0L117 0L117 -75L196 -75Z" />
<glyph glyph-name="hyphen" unicode="&#x2d;" horiz-adv-x="534" d="M20 420L20 279L514 279L514 420Z" />
<glyph glyph-name="period" unicode="&#x2e;" horiz-adv-x="277" d="M40 175L40 0L237 0L237 175Z" />
<glyph glyph-name="slash" unicode="&#x2f;" horiz-adv-x="525" d="M525 662L525 700L385 700L0 38L0 0L141 0Z" />
<glyph glyph-name="zero" unicode="&#x30;" horiz-adv-x="574" d="M315 524L315 174L258 174L258 524ZM446 0C498 0 534 36 534 87L534 613C534 664 497 700 446 700L127 700C76 700 40 664 40 613L40 87C40 36 76 0 127 0Z" />
<glyph glyph-name="one" unicode="&#x31;" horiz-adv-x="299" d="M259 0L259 700L150 700L40 657L40 0Z" />
<glyph glyph-name="two" unicode="&#x32;" horiz-adv-x="534" d="M455 334C506 363 514 397 514 453L514 613C514 664 478 700 427 700L20 700L20 613L55 524L296 524L296 487L79 351C30 321 20 289 20 232L20 0L514 0L514 174L239 174L239 212Z" />
<glyph glyph-name="three" unicode="&#x33;" horiz-adv-x="554" d="M514 329C514 386 480 416 425 420L510 533L510 700L20 700L20 613L55 524L254 524L254 487L138 380L138 271L296 271L296 174L20 174L20 0L427 0C478 0 514 36 514 87Z" />
<glyph glyph-name="four" unicode="&#x34;" horiz-adv-x="588" d="M143 700L20 346L20 132L329 132L329 0L548 0L548 434L329 434L329 307L243 307L243 344L337 613L337 700Z" />
<glyph glyph-name="five" unicode="&#x35;" horiz-adv-x="564" d="M40 700L40 271L316 271L316 174L40 174L40 0L447 0C498 0 534 36 534 87L534 358C534 409 498 445 447 445L259 445L259 524L496 524L530 613L530 700Z" />
<glyph glyph-name="six" unicode="&#x36;" horiz-adv-x="564" d="M315 174L258 174L258 271L315 271ZM446 445L258 445L258 524L491 524L525 613L525 700L127 700C76 700 40 664 40 613L40 87C40 36 76 0 127 0L446 0C498 0 534 36 534 87L534 358C534 409 498 445 446 445Z" />
<glyph glyph-name="seven" unicode="&#x37;" horiz-adv-x="460" d="M216 500L68 56L68 0L271 0L440 520L440 700L10 700L10 524L216 524Z" />
<glyph glyph-name="eight" unicode="&#x38;" horiz-adv-x="574" d="M259 271L316 271L316 174L259 174ZM259 524L316 524L316 445L259 445ZM128 0L447 0C498 0 534 36 534 87L534 264C534 315 493 348 445 348L445 368C493 368 534 401 534 452L534 613C534 664 498 700 447 700L128 700C77 700 40 664 40 613L40 452C40 401 82 368 130 368L130 348C82 348 40 315 40 264L40 87C40 36 76 0 128 0Z" />
<glyph glyph-name="nine" unicode="&#x39;" horiz-adv-x="564" d="M248 524L305 524L305 428L248 428ZM117 253L305 253L305 174L55 174L55 0L436 0C488 0 524 36 524 87L524 613C524 664 488 700 436 700L117 700C66 700 30 664 30 613L30 341C30 289 66 253 117 253Z" />
<glyph glyph-name="colon" unicode="&#x3a;" horiz-adv-x="277" d="M40 175L40 0L237 0L237 175ZM40 700L40 524L237 524L237 700Z" />
<glyph glyph-name="semicolon" unicode="&#x3b;" horiz-adv-x="277" d="M237 31L237 175L40 175L40 0L116 0L116 -75L196 -75ZM40 700L40 524L237 524L237 700Z" />
<glyph glyph-name="less" unicode="&#x3c;" horiz-adv-x="406" d="M366 501L366 547L223 547L20 366L20 303L223 122L366 122L366 169L176 335Z" />
<glyph glyph-name="equal" unicode="&#x3d;" horiz-adv-x="574" d="M40 298L40 156L534 156L534 298ZM40 542L40 401L534 401L534 542Z" />
<glyph glyph-name="greater" unicode="&#x3e;" horiz-adv-x="407" d="M40 501L231 335L40 169L40 122L184 122L387 303L387 366L184 547L40 547Z" />
<glyph glyph-name="question" unicode="&#x3f;" horiz-adv-x="524" d="M445 356C495 385 504 419 504 475L504 613C504 664 468 700 416 700L10 700L10 613L44 524L285 524L285 487L199 425C152 391 140 363 140 306L140 248L337 248L337 295ZM140 175L140 0L337 0L337 175Z" />
<glyph glyph-name="at" unicode="&#x40;" horiz-adv-x="711" d="M398 374L529 374L529 326L398 326ZM529 567L529 506L321 506C276 506 260 497 260 450L260 250C260 202 276 193 321 193L671 193L671 594C671 684 630 700 584 700L126 700C81 700 40 684 40 594L40 105C40 15 81 0 126 0L671 0L671 133L182 133L182 567Z" />
<glyph glyph-name="A" unicode="&#x41;" horiz-adv-x="600" d="M268 316L288 524L312 524L332 316ZM118 700L20 87L20 0L238 0L252 141L348 141L361 0L580 0L580 87L482 700Z" />
<glyph glyph-name="B" unicode="&#x42;" horiz-adv-x="595" d="M259 271L346 271L346 175L259 175ZM346 446L259 446L259 524L346 524ZM477 0C529 0 565 36 565 87L565 264C565 316 523 349 475 349L475 368C523 368 565 401 565 452L565 613C565 664 529 700 477 700L40 700L40 0Z" />
<glyph glyph-name="C" unicode="&#x43;" horiz-adv-x="528" d="M128 700C76 700 40 664 40 613L40 87C40 36 76 0 128 0L508 0L508 175L259 175L259 524L474 524L508 613L508 700Z" />
<glyph glyph-name="D" unicode="&#x44;" horiz-adv-x="604" d="M258 524L346 524L346 175L258 175ZM477 0C528 0 564 36 564 87L564 613C564 664 528 700 477 700L40 700L40 0Z" />
<glyph glyph-name="E" unicode="&#x45;" horiz-adv-x="528" d="M508 0L508 175L258 175L258 271L473 271L473 446L258 446L258 524L473 524L508 613L508 700L40 700L40 0Z" />
<glyph glyph-name="F" unicode="&#x46;" horiz-adv-x="518" d="M259 236L474 236L474 411L259 411L259 524L474 524L508 613L508 700L40 700L40 0L259 0Z" />
<glyph glyph-name="G" unicode="&#x47;" horiz-adv-x="605" d="M128 700C76 700 40 664 40 613L40 87C40 36 76 0 128 0L565 0L565 410L346 410L346 175L259 175L259 524L526 524L561 613L561 700Z" />
<glyph glyph-name="H" unicode="&#x48;" horiz-adv-x="604" d="M258 446L258 700L40 700L40 0L258 0L258 271L346 271L346 0L564 0L564 700L346 700L346 446Z" />
<glyph glyph-name="I" unicode="&#x49;" horiz-adv-x="298" d="M258 0L258 700L40 700L40 0Z" />
<glyph glyph-name="J" unicode="&#x4a;" horiz-adv-x="395" d="M268 0C319 0 355 36 355 87L355 700L137 700L137 175L10 175L10 0Z" />
<glyph glyph-name="K" unicode="&#x4b;" horiz-adv-x="595" d="M298 446L258 446L258 700L40 700L40 0L258 0L258 271L298 271L357 0L575 0L575 87L477 370L558 613L558 700L350 700Z" />
<glyph glyph-name="L" unicode="&#x4c;" horiz-adv-x="488" d="M40 0L478 0L478 175L258 175L258 700L40 700Z" />
<glyph glyph-name="M" unicode="&#x4d;" horiz-adv-x="793" d="M305 0L488 0L542 336L560 336L560 0L773 0L773 87L702 700L457 700L404 424L389 424L336 700L92 700L20 87L20 0L234 0L234 336L251 336Z" />
<glyph glyph-name="N" unicode="&#x4e;" horiz-adv-x="605" d="M374 376L272 700L40 700L40 0L241 0L241 87L213 323L230 323L333 0L565 0L565 700L363 700L363 613L392 376Z" />
<glyph glyph-name="O" unicode="&#x4f;" horiz-adv-x="605" d="M346 524L346 175L259 175L259 524ZM477 0C529 0 565 36 565 87L565 613C565 664 529 700 477 700L128 700C76 700 40 664 40 613L40 87C40 36 76 0 128 0Z" />
<glyph glyph-name="P" unicode="&#x50;" horiz-adv-x="595" d="M259 524L346 524L346 393L259 393ZM477 218C529 218 565 255 565 306L565 613C565 664 529 700 477 700L40 700L40 0L259 0L259 218Z" />
<glyph glyph-name="Q" unicode="&#x51;" horiz-adv-x="605" d="M346 524L346 175L259 175L259 524ZM477 0C529 0 565 36 565 87L565 613C565 664 529 700 477 700L128 700C76 700 40 664 40 613L40 87C40 36 76 0 128 0L231 0L264 -155L430 -155L430 -68L386 0Z" />
<glyph glyph-name="R" unicode="&#x52;" horiz-adv-x="596" d="M346 524L346 393L259 393L259 524ZM40 700L40 0L259 0L259 218L303 218L362 0L576 0L576 87L507 259C540 268 565 305 565 338L565 613C565 664 529 700 478 700Z" />
<glyph glyph-name="S" unicode="&#x53;" horiz-adv-x="508" d="M79 347L269 221L269 175L20 175L20 0L401 0C452 0 488 36 488 87L488 246C488 302 477 333 429 365L239 492L239 524L454 524L488 614L488 700L108 700C56 700 20 664 20 613L20 466C20 410 31 380 79 347Z" />
<glyph glyph-name="T" unicode="&#x54;" horiz-adv-x="510" d="M141 524L141 0L360 0L360 524L465 524L500 613L500 700L10 700L10 524Z" />
<glyph glyph-name="U" unicode="&#x55;" horiz-adv-x="605" d="M346 700L346 175L259 175L259 700L40 700L40 87C40 36 76 0 128 0L565 0L565 700Z" />
<glyph glyph-name="V" unicode="&#x56;" horiz-adv-x="571" d="M121 0L450 0L561 643L561 700L343 700L298 175L273 175L228 700L10 700L10 643Z" />
<glyph glyph-name="W" unicode="&#x57;" horiz-adv-x="793" d="M305 700L251 363L234 363L234 700L20 700L20 613L92 0L336 0L389 275L404 275L457 0L702 0L773 613L773 700L560 700L560 363L542 363L488 700Z" />
<glyph glyph-name="X" unicode="&#x58;" horiz-adv-x="580" d="M299 446L281 446L235 700L27 700L27 606L108 370L10 83L10 0L229 0L281 271L299 271L351 0L570 0L570 83L472 370L553 606L553 700L345 700Z" />
<glyph glyph-name="Y" unicode="&#x59;" horiz-adv-x="580" d="M181 191L181 0L399 0L399 191L570 613L570 700L352 700L298 428L282 428L229 700L10 700L10 613Z" />
<glyph glyph-name="Z" unicode="&#x5a;" horiz-adv-x="535" d="M20 0L515 0L515 175L269 175L269 199L506 520L506 700L20 700L20 613L54 524L256 524L256 500L20 179Z" />
<glyph glyph-name="bracketleft" unicode="&#x5b;" horiz-adv-x="251" d="M181 751L251 751L251 884L40 884L40 -186L251 -186L251 -53L181 -53Z" />
<glyph glyph-name="backslash" unicode="&#x5c;" horiz-adv-x="525" d="M0 662L385 0L525 0L525 38L141 700L0 700Z" />
<glyph glyph-name="bracketright" unicode="&#x5d;" horiz-adv-x="252" d="M70 751L70 -53L0 -53L0 -186L212 -186L212 884L0 884L0 751Z" />
<glyph glyph-name="underscore" unicode="&#x5f;" horiz-adv-x="493" d="M0 -59L0 -200L493 -200L493 -59Z" />
<glyph glyph-name="a" unicode="&#x61;" horiz-adv-x="600" d="M268 316L288 524L312 524L332 316ZM118 700L20 87L20 0L238 0L252 141L348 141L361 0L580 0L580 87L482 700Z" />
<glyph glyph-name="b" unicode="&#x62;" horiz-adv-x="595" d="M259 271L346 271L346 175L259 175ZM346 446L259 446L259 524L346 524ZM477 0C529 0 565 36 565 87L565 264C565 316 523 349 475 349L475 368C523 368 565 401 565 452L565 613C565 664 529 700 477 700L40 700L40 0Z" />
<glyph glyph-name="c" unicode="&#x63;" horiz-adv-x="528" d="M128 700C76 700 40 664 40 613L40 87C40 36 76 0 128 0L508 0L508 175L259 175L259 524L474 524L508 613L508 700Z" />
<glyph glyph-name="d" unicode="&#x64;" horiz-adv-x="604" d="M258 524L346 524L346 175L258 175ZM477 0C528 0 564 36 564 87L564 613C564 664 528 700 477 700L40 700L40 0Z" />
<glyph glyph-name="e" unicode="&#x65;" horiz-adv-x="528" d="M508 0L508 175L258 175L258 271L473 271L473 446L258 446L258 524L473 524L508 613L508 700L40 700L40 0Z" />
<glyph glyph-name="f" unicode="&#x66;" horiz-adv-x="518" d="M259 236L474 236L474 411L259 411L259 524L474 524L508 613L508 700L40 700L40 0L259 0Z" />
<glyph glyph-name="g" unicode="&#x67;" horiz-adv-x="605" d="M128 700C76 700 40 664 40 613L40 87C40 36 76 0 128 0L565 0L565 410L346 410L346 175L259 175L259 524L526 524L561 613L561 700Z" />
<glyph glyph-name="h" unicode="&#x68;" horiz-adv-x="604" d="M258 446L258 700L40 700L40 0L258 0L258 271L346 271L346 0L564 0L564 700L346 700L346 446Z" />
<glyph glyph-name="i" unicode="&#x69;" horiz-adv-x="298" d="M258 0L258 700L40 700L40 0Z" />
<glyph glyph-name="j" unicode="&#x6a;" horiz-adv-x="395" d="M268 0C319 0 355 36 355 87L355 700L137 700L137 175L10 175L10 0Z" />
<glyph glyph-name="k" unicode="&#x6b;" horiz-adv-x="595" d="M298 446L258 446L258 700L40 700L40 0L258 0L258 271L298 271L357 0L575 0L575 87L477 370L558 613L558 700L350 700Z" />
<glyph glyph-name="l" unicode="&#x6c;" horiz-adv-x="488" d="M40 0L478 0L478 175L258 175L258 700L40 700Z" />
<glyph glyph-name="m" unicode="&#x6d;" horiz-adv-x="793" d="M305 0L488 0L542 336L560 336L560 0L773 0L773 87L702 700L457 700L404 424L389 424L336 700L92 700L20 87L20 0L234 0L234 336L251 336Z" />
<glyph glyph-name="n" unicode="&#x6e;" horiz-adv-x="605" d="M374 376L272 700L40 700L40 0L241 0L241 87L213 323L230 323L333 0L565 0L565 700L363 700L363 613L392 376Z" />
<glyph glyph-name="o" unicode="&#x6f;" horiz-adv-x="605" d="M346 524L346 175L259 175L259 524ZM477 0C529 0 565 36 565 87L565 613C565 664 529 700 477 700L128 700C76 700 40 664 40 613L40 87C40 36 76 0 128 0Z" />
<glyph glyph-name="p" unicode="&#x70;" horiz-adv-x="595" d="M259 524L346 524L346 393L259 393ZM477 218C529 218 565 255 565 306L565 613C565 664 529 700 477 700L40 700L40 0L259 0L259 218Z" />
<glyph glyph-name="q" unicode="&#x71;" horiz-adv-x="605" d="M346 524L346 175L259 175L259 524ZM477 0C529 0 565 36 565 87L565 613C565 664 529 700 477 700L128 700C76 700 40 664 40 613L40 87C40 36 76 0 128 0L231 0L264 -155L430 -155L430 -68L386 0Z" />
<glyph glyph-name="r" unicode="&#x72;" horiz-adv-x="596" d="M346 524L346 393L259 393L259 524ZM40 700L40 0L259 0L259 218L303 218L362 0L576 0L576 87L507 259C540 268 565 305 565 338L565 613C565 664 529 700 478 700Z" />
<glyph glyph-name="s" unicode="&#x73;" horiz-adv-x="508" d="M79 347L269 221L269 175L20 175L20 0L401 0C452 0 488 36 488 87L488 246C488 302 477 333 429 365L239 492L239 524L454 524L488 614L488 700L108 700C56 700 20 664 20 613L20 466C20 410 31 380 79 347Z" />
<glyph glyph-name="t" unicode="&#x74;" horiz-adv-x="510" d="M141 524L141 0L360 0L360 524L465 524L500 613L500 700L10 700L10 524Z" />
<glyph glyph-name="u" unicode="&#x75;" horiz-adv-x="605" d="M346 700L346 175L259 175L259 700L40 700L40 87C40 36 76 0 128 0L565 0L565 700Z" />
<glyph glyph-name="v" unicode="&#x76;" horiz-adv-x="571" d="M121 0L450 0L561 643L561 700L343 700L298 175L273 175L228 700L10 700L10 643Z" />
<glyph glyph-name="w" unicode="&#x77;" horiz-adv-x="793" d="M305 700L251 363L234 363L234 700L20 700L20 613L92 0L336 0L389 275L404 275L457 0L702 0L773 613L773 700L560 700L560 363L542 363L488 700Z" />
<glyph glyph-name="x" unicode="&#x78;" horiz-adv-x="580" d="M299 446L281 446L235 700L27 700L27 606L108 370L10 83L10 0L229 0L281 271L299 271L351 0L570 0L570 83L472 370L553 606L553 700L345 700Z" />
<glyph glyph-name="y" unicode="&#x79;" horiz-adv-x="580" d="M181 191L181 0L399 0L399 191L570 613L570 700L352 700L298 428L282 428L229 700L10 700L10 613Z" />
<glyph glyph-name="z" unicode="&#x7a;" horiz-adv-x="535" d="M20 0L515 0L515 175L269 175L269 199L506 520L506 700L20 700L20 613L54 524L256 524L256 500L20 179Z" />
<glyph glyph-name="guillemotleft" unicode="&#xab;" horiz-adv-x="499" d="M459 499L459 545L342 545L235 366L235 303L342 124L459 124L459 170L365 335ZM244 499L244 545L126 545L20 366L20 303L126 124L244 124L244 170L149 335Z" />
<glyph glyph-name="guillemotright" unicode="&#xbb;" horiz-adv-x="500" d="M40 499L134 335L40 170L40 124L157 124L264 303L264 366L157 545L40 545ZM256 499L350 335L256 170L256 124L373 124L480 303L480 366L373 545L256 545Z" />
<glyph glyph-name="afii10023" unicode="&#x0401;" horiz-adv-x="528" d="M290 777L441 777L469 848L469 945L290 945ZM79 777L230 777L258 848L258 945L79 945ZM508 0L508 175L259 175L259 271L474 271L474 446L259 446L259 525L474 525L508 613L508 700L40 700L40 0Z" />
<glyph glyph-name="afii10061" unicode="&#x040c;" horiz-adv-x="694" d="M117 0L342 0L342 175L248 175L248 271L391 271L391 88C391 36 427 0 479 0L674 0L674 175L610 175L610 271L674 271L674 446L248 446L248 525L485 525L519 613L519 700L117 700C66 700 30 664 30 613L30 453C30 401 72 368 119 368L119 349C72 349 30 316 30 265L30 88C30 36 66 0 117 0Z" />
<glyph glyph-name="afii10017" unicode="&#x0410;" horiz-adv-x="600" d="M268 316L288 524L312 524L332 316ZM118 700L20 87L20 0L238 0L252 141L348 141L361 0L580 0L580 87L482 700Z" />
<glyph glyph-name="afii10018" unicode="&#x0411;" horiz-adv-x="594" d="M258 175L258 271L346 271L346 175ZM477 446L258 446L258 525L525 525L560 613L560 700L40 700L40 0L477 0C528 0 564 37 564 88L564 359C564 410 528 446 477 446Z" />
<glyph glyph-name="afii10019" unicode="&#x0412;" horiz-adv-x="595" d="M259 271L346 271L346 175L259 175ZM346 446L259 446L259 524L346 524ZM477 0C529 0 565 36 565 87L565 264C565 316 523 349 475 349L475 368C523 368 565 401 565 452L565 613C565 664 529 700 477 700L40 700L40 0Z" />
<glyph glyph-name="afii10020" unicode="&#x0413;" horiz-adv-x="518" d="M259 525L474 525L508 613L508 700L40 700L40 0L259 0Z" />
<glyph glyph-name="afii10021" unicode="&#x0414;" horiz-adv-x="670" d="M383 175L298 175L352 525L383 525ZM10 0L660 0L660 175L602 175L602 700L182 700L75 175L10 175Z" />
<glyph glyph-name="afii10022" unicode="&#x0415;" horiz-adv-x="528" d="M508 0L508 175L258 175L258 271L473 271L473 446L258 446L258 524L473 524L508 613L508 700L40 700L40 0Z" />
<glyph glyph-name="afii10024" unicode="&#x0416;" horiz-adv-x="875" d="M577 446L547 446L547 700L328 700L328 446L298 446L245 700L38 700L38 613L118 371L20 87L20 0L239 0L298 271L328 271L328 0L547 0L547 271L577 271L636 0L855 0L855 87L757 371L838 613L838 700L630 700Z" />
<glyph glyph-name="afii10025" unicode="&#x0417;" horiz-adv-x="517" d="M400 0C451 0 487 37 487 88L487 265C487 316 446 349 398 349L398 368C446 368 487 401 487 453L487 612C487 663 451 700 400 700L20 700L20 613L54 525L269 525L269 446L137 446L137 271L269 271L269 175L20 175L20 0Z" />
<glyph glyph-name="afii10026" unicode="&#x0418;" horiz-adv-x="604" d="M346 630L243 389L226 389L258 613L258 700L40 700L40 0L258 0L258 70L361 311L379 311L346 87L346 0L564 0L564 700L346 700Z" />
<glyph glyph-name="afii10027" unicode="&#x0419;" horiz-adv-x="605" d="M138 777L439 777L467 848L467 945L138 945ZM346 630L244 389L226 389L259 613L259 700L40 700L40 0L259 0L259 70L362 311L379 311L346 87L346 0L565 0L565 700L346 700Z" />
<glyph glyph-name="afii10028" unicode="&#x041a;" horiz-adv-x="595" d="M298 446L259 446L259 700L40 700L40 0L259 0L259 271L298 271L357 0L575 0L575 87L477 371L558 613L558 700L351 700Z" />
<glyph glyph-name="afii10029" unicode="&#x041b;" horiz-adv-x="601" d="M561 0L561 700L142 700L10 87L10 0L230 0L312 525L343 525L343 0Z" />
<glyph glyph-name="afii10030" unicode="&#x041c;" horiz-adv-x="793" d="M305 0L488 0L542 336L560 336L560 0L773 0L773 87L702 700L457 700L404 424L389 424L336 700L92 700L20 87L20 0L234 0L234 336L251 336Z" />
<glyph glyph-name="afii10031" unicode="&#x041d;" horiz-adv-x="604" d="M258 446L258 700L40 700L40 0L258 0L258 271L346 271L346 0L564 0L564 700L346 700L346 446Z" />
<glyph glyph-name="afii10032" unicode="&#x041e;" horiz-adv-x="605" d="M346 524L346 175L259 175L259 524ZM477 0C529 0 565 36 565 87L565 613C565 664 529 700 477 700L128 700C76 700 40 664 40 613L40 87C40 36 76 0 128 0Z" />
<glyph glyph-name="afii10033" unicode="&#x041f;" horiz-adv-x="605" d="M259 0L259 525L346 525L346 0L565 0L565 700L40 700L40 0Z" />
<glyph glyph-name="afii10034" unicode="&#x0420;" horiz-adv-x="595" d="M259 524L346 524L346 393L259 393ZM477 218C529 218 565 255 565 306L565 613C565 664 529 700 477 700L40 700L40 0L259 0L259 218Z" />
<glyph glyph-name="afii10035" unicode="&#x0421;" horiz-adv-x="528" d="M128 700C76 700 40 664 40 613L40 87C40 36 76 0 128 0L508 0L508 175L259 175L259 524L474 524L508 613L508 700Z" />
<glyph glyph-name="afii10036" unicode="&#x0422;" horiz-adv-x="510" d="M141 524L141 0L360 0L360 524L465 524L500 613L500 700L10 700L10 524Z" />
<glyph glyph-name="afii10037" unicode="&#x0423;" horiz-adv-x="555" d="M356 0L545 613L545 700L342 700L300 426L276 426L220 700L10 700L10 613L191 166L163 87L163 0Z" />
<glyph glyph-name="afii10038" unicode="&#x0424;" horiz-adv-x="873" d="M546 250L546 462L624 462L624 250ZM327 462L327 250L248 250L248 462ZM327 0L546 0L546 75L755 75C807 75 843 111 843 163L843 549C843 601 807 637 755 637L546 637L546 700L327 700L327 637L118 637C66 637 30 601 30 549L30 163C30 111 66 75 118 75L327 75Z" />
<glyph glyph-name="afii10039" unicode="&#x0425;" horiz-adv-x="580" d="M299 446L281 446L235 700L27 700L27 606L108 370L10 83L10 0L229 0L281 271L299 271L351 0L570 0L570 83L472 370L553 606L553 700L345 700Z" />
<glyph glyph-name="afii10040" unicode="&#x0426;" horiz-adv-x="633" d="M259 700L40 700L40 0L623 0L623 175L565 175L565 700L346 700L346 175L259 175Z" />
<glyph glyph-name="afii10041" unicode="&#x0427;" horiz-adv-x="594" d="M117 236L336 236L336 0L554 0L554 700L336 700L336 411L248 411L248 700L30 700L30 324C30 273 66 236 117 236Z" />
<glyph glyph-name="afii10042" unicode="&#x0428;" horiz-adv-x="893" d="M40 700L40 0L853 0L853 700L635 700L635 175L556 175L556 700L338 700L338 175L259 175L259 700Z" />
<glyph glyph-name="afii10043" unicode="&#x0429;" horiz-adv-x="921" d="M911 0L911 175L853 175L853 700L635 700L635 175L556 175L556 700L337 700L337 175L259 175L259 700L40 700L40 0Z" />
<glyph glyph-name="afii10044" unicode="&#x042a;" horiz-adv-x="623" d="M287 175L287 306L374 306L374 175ZM505 481L287 481L287 700L10 700L10 525L68 525L68 0L505 0C557 0 593 37 593 88L593 394C593 445 557 481 505 481Z" />
<glyph glyph-name="afii10045" unicode="&#x042b;" horiz-adv-x="876" d="M259 175L259 306L338 306L338 175ZM617 700L617 0L836 0L836 700ZM469 481L259 481L259 700L40 700L40 0L469 0C520 0 556 37 556 88L556 394C556 445 520 481 469 481Z" />
<glyph glyph-name="afii10046" unicode="&#x042c;" horiz-adv-x="595" d="M259 175L259 306L346 306L346 175ZM478 481L259 481L259 700L40 700L40 0L478 0C529 0 565 37 565 88L565 394C565 445 529 481 478 481Z" />
<glyph glyph-name="afii10047" unicode="&#x042d;" horiz-adv-x="528" d="M401 700L20 700L20 613L55 525L269 525L269 446L138 446L138 271L269 271L269 175L20 175L20 0L401 0C452 0 488 37 488 88L488 612C488 663 452 700 401 700Z" />
<glyph glyph-name="afii10048" unicode="&#x042e;" horiz-adv-x="893" d="M634 525L634 175L556 175L556 525ZM258 446L258 700L40 700L40 0L258 0L258 271L337 271L337 88C337 37 373 0 425 0L765 0C817 0 853 37 853 88L853 612C853 663 817 700 765 700L424 700C373 700 337 663 337 612L337 446Z" />
<glyph glyph-name="afii10049" unicode="&#x042f;" horiz-adv-x="595" d="M249 525L336 525L336 394L249 394ZM555 700L118 700C66 700 30 663 30 612L30 339C30 305 55 268 88 259L20 87L20 0L234 0L292 219L336 219L336 0L555 0Z" />
<glyph glyph-name="afii10065" unicode="&#x0430;" horiz-adv-x="600" d="M268 316L288 524L312 524L332 316ZM118 700L20 87L20 0L238 0L252 141L348 141L361 0L580 0L580 87L482 700Z" />
<glyph glyph-name="afii10066" unicode="&#x0431;" horiz-adv-x="594" d="M258 175L258 271L346 271L346 175ZM477 446L258 446L258 525L525 525L560 613L560 700L40 700L40 0L477 0C528 0 564 37 564 88L564 359C564 410 528 446 477 446Z" />
<glyph glyph-name="afii10067" unicode="&#x0432;" horiz-adv-x="595" d="M259 271L346 271L346 175L259 175ZM346 446L259 446L259 524L346 524ZM477 0C529 0 565 36 565 87L565 264C565 316 523 349 475 349L475 368C523 368 565 401 565 452L565 613C565 664 529 700 477 700L40 700L40 0Z" />
<glyph glyph-name="afii10068" unicode="&#x0433;" horiz-adv-x="518" d="M259 525L474 525L508 613L508 700L40 700L40 0L259 0Z" />
<glyph glyph-name="afii10069" unicode="&#x0434;" horiz-adv-x="670" d="M383 175L298 175L352 525L383 525ZM10 0L660 0L660 175L602 175L602 700L182 700L75 175L10 175Z" />
<glyph glyph-name="afii10070" unicode="&#x0435;" horiz-adv-x="528" d="M508 0L508 175L258 175L258 271L473 271L473 446L258 446L258 524L473 524L508 613L508 700L40 700L40 0Z" />
<glyph glyph-name="afii10072" unicode="&#x0436;" horiz-adv-x="875" d="M577 446L547 446L547 700L328 700L328 446L298 446L245 700L38 700L38 613L118 371L20 87L20 0L239 0L298 271L328 271L328 0L547 0L547 271L577 271L636 0L855 0L855 87L757 371L838 613L838 700L630 700Z" />
<glyph glyph-name="afii10073" unicode="&#x0437;" horiz-adv-x="517" d="M400 0C451 0 487 37 487 88L487 265C487 316 446 349 398 349L398 368C446 368 487 401 487 453L487 612C487 663 451 700 400 700L20 700L20 613L54 525L269 525L269 446L137 446L137 271L269 271L269 175L20 175L20 0Z" />
<glyph glyph-name="afii10074" unicode="&#x0438;" horiz-adv-x="604" d="M346 630L243 389L226 389L258 613L258 700L40 700L40 0L258 0L258 70L361 311L379 311L346 87L346 0L564 0L564 700L346 700Z" />
<glyph glyph-name="afii10075" unicode="&#x0439;" horiz-adv-x="605" d="M138 777L439 777L467 848L467 945L138 945ZM346 630L244 389L226 389L259 613L259 700L40 700L40 0L259 0L259 70L362 311L379 311L346 87L346 0L565 0L565 700L346 700Z" />
<glyph glyph-name="afii10076" unicode="&#x043a;" horiz-adv-x="595" d="M298 446L259 446L259 700L40 700L40 0L259 0L259 271L298 271L357 0L575 0L575 87L477 371L558 613L558 700L351 700Z" />
<glyph glyph-name="afii10077" unicode="&#x043b;" horiz-adv-x="601" d="M561 0L561 700L142 700L10 87L10 0L230 0L312 525L343 525L343 0Z" />
<glyph glyph-name="afii10078" unicode="&#x043c;" horiz-adv-x="793" d="M305 0L488 0L542 336L560 336L560 0L773 0L773 87L702 700L457 700L404 424L389 424L336 700L92 700L20 87L20 0L234 0L234 336L251 336Z" />
<glyph glyph-name="afii10079" unicode="&#x043d;" horiz-adv-x="604" d="M258 446L258 700L40 700L40 0L258 0L258 271L346 271L346 0L564 0L564 700L346 700L346 446Z" />
<glyph glyph-name="afii10080" unicode="&#x043e;" horiz-adv-x="605" d="M346 524L346 175L259 175L259 524ZM477 0C529 0 565 36 565 87L565 613C565 664 529 700 477 700L128 700C76 700 40 664 40 613L40 87C40 36 76 0 128 0Z" />
<glyph glyph-name="afii10081" unicode="&#x043f;" horiz-adv-x="605" d="M259 0L259 525L346 525L346 0L565 0L565 700L40 700L40 0Z" />
<glyph glyph-name="afii10082" unicode="&#x0440;" horiz-adv-x="595" d="M259 524L346 524L346 393L259 393ZM477 218C529 218 565 255 565 306L565 613C565 664 529 700 477 700L40 700L40 0L259 0L259 218Z" />
<glyph glyph-name="afii10083" unicode="&#x0441;" horiz-adv-x="528" d="M128 700C76 700 40 664 40 613L40 87C40 36 76 0 128 0L508 0L508 175L259 175L259 524L474 524L508 613L508 700Z" />
<glyph glyph-name="afii10084" unicode="&#x0442;" horiz-adv-x="510" d="M141 524L141 0L360 0L360 524L465 524L500 613L500 700L10 700L10 524Z" />
<glyph glyph-name="afii10085" unicode="&#x0443;" horiz-adv-x="555" d="M356 0L545 613L545 700L342 700L300 426L276 426L220 700L10 700L10 613L191 166L163 87L163 0Z" />
<glyph glyph-name="afii10086" unicode="&#x0444;" horiz-adv-x="873" d="M546 250L546 462L624 462L624 250ZM327 462L327 250L248 250L248 462ZM327 0L546 0L546 75L755 75C807 75 843 111 843 163L843 549C843 601 807 637 755 637L546 637L546 700L327 700L327 637L118 637C66 637 30 601 30 549L30 163C30 111 66 75 118 75L327 75Z" />
<glyph glyph-name="afii10087" unicode="&#x0445;" horiz-adv-x="580" d="M299 446L281 446L235 700L27 700L27 606L108 370L10 83L10 0L229 0L281 271L299 271L351 0L570 0L570 83L472 370L553 606L553 700L345 700Z" />
<glyph glyph-name="afii10088" unicode="&#x0446;" horiz-adv-x="633" d="M259 700L40 700L40 0L623 0L623 175L565 175L565 700L346 700L346 175L259 175Z" />
<glyph glyph-name="afii10089" unicode="&#x0447;" horiz-adv-x="594" d="M117 236L336 236L336 0L554 0L554 700L336 700L336 411L248 411L248 700L30 700L30 324C30 273 66 236 117 236Z" />
<glyph glyph-name="afii10090" unicode="&#x0448;" horiz-adv-x="893" d="M40 700L40 0L853 0L853 700L635 700L635 175L556 175L556 700L338 700L338 175L259 175L259 700Z" />
<glyph glyph-name="afii10091" unicode="&#x0449;" horiz-adv-x="921" d="M911 0L911 175L853 175L853 700L635 700L635 175L556 175L556 700L337 700L337 175L259 175L259 700L40 700L40 0Z" />
<glyph glyph-name="afii10092" unicode="&#x044a;" horiz-adv-x="623" d="M287 175L287 306L374 306L374 175ZM505 481L287 481L287 700L10 700L10 525L68 525L68 0L505 0C557 0 593 37 593 88L593 394C593 445 557 481 505 481Z" />
<glyph glyph-name="afii10093" unicode="&#x044b;" horiz-adv-x="876" d="M259 175L259 306L338 306L338 175ZM617 700L617 0L836 0L836 700ZM469 481L259 481L259 700L40 700L40 0L469 0C520 0 556 37 556 88L556 394C556 445 520 481 469 481Z" />
<glyph glyph-name="afii10094" unicode="&#x044c;" horiz-adv-x="595" d="M259 175L259 306L346 306L346 175ZM478 481L259 481L259 700L40 700L40 0L478 0C529 0 565 37 565 88L565 394C565 445 529 481 478 481Z" />
<glyph glyph-name="afii10095" unicode="&#x044d;" horiz-adv-x="528" d="M401 700L20 700L20 613L55 525L269 525L269 446L138 446L138 271L269 271L269 175L20 175L20 0L401 0C452 0 488 37 488 88L488 612C488 663 452 700 401 700Z" />
<glyph glyph-name="afii10096" unicode="&#x044e;" horiz-adv-x="893" d="M634 525L634 175L556 175L556 525ZM258 446L258 700L40 700L40 0L258 0L258 271L337 271L337 88C337 37 373 0 425 0L765 0C817 0 853 37 853 88L853 612C853 663 817 700 765 700L424 700C373 700 337 663 337 612L337 446Z" />
<glyph glyph-name="afii10097" unicode="&#x044f;" horiz-adv-x="595" d="M249 525L336 525L336 394L249 394ZM555 700L118 700C66 700 30 663 30 612L30 339C30 305 55 268 88 259L20 87L20 0L234 0L292 219L336 219L336 0L555 0Z" />
<glyph glyph-name="afii10071" unicode="&#x0451;" horiz-adv-x="528" d="M290 777L441 777L469 848L469 945L290 945ZM79 777L230 777L258 848L258 945L79 945ZM508 0L508 175L259 175L259 271L474 271L474 446L259 446L259 525L474 525L508 613L508 700L40 700L40 0Z" />
<glyph glyph-name="endash" unicode="&#x2013;" horiz-adv-x="382" d="M20 405L20 264L362 264L362 405Z" />
<glyph glyph-name="emdash" unicode="&#x2014;" horiz-adv-x="794" d="M20 405L20 264L774 264L774 405Z" />
<glyph glyph-name="quoteleft" unicode="&#x2018;" horiz-adv-x="277" d="M40 669L40 524L237 524L237 700L161 700L161 774L82 774Z" />
<glyph glyph-name="quoteright" unicode="&#x2019;" horiz-adv-x="277" d="M237 700L40 700L40 524L116 524L116 449L196 449L237 556Z" />
<glyph glyph-name="quotedblleft" unicode="&#x201c;" horiz-adv-x="533" d="M296 669L296 524L493 524L493 700L417 700L417 774L338 774ZM40 668L40 524L237 524L237 700L160 700L160 774L81 774Z" />
<glyph glyph-name="quotedblright" unicode="&#x201d;" horiz-adv-x="533" d="M237 555L237 700L40 700L40 524L116 524L116 450L195 450ZM493 556L493 700L296 700L296 524L373 524L373 450L452 450Z" />
<glyph glyph-name="quotedblbase" unicode="&#x201e;" horiz-adv-x="533" d="M237 31L237 175L40 175L40 0L116 0L116 -75L195 -75ZM493 31L493 175L296 175L296 0L373 0L373 -75L452 -75Z" />
<glyph glyph-name="Euro" unicode="&#x20ac;" horiz-adv-x="568" d="M167 700C116 700 80 663 80 612L80 458L18 458L0 414L0 369L80 369L80 330L18 330L0 285L0 241L80 241L80 87C80 36 116 0 167 0L548 0L548 175L298 175L298 241L403 241L420 285L420 330L298 330L298 369L453 369L470 414L470 458L298 458L298 524L513 524L548 612L548 700Z" /></font>
</defs>
</svg>
