<?xml version="1.0" standalone="no"?><!DOCTYPE svg PUBLIC "-//W3C//DTD SVG 1.1//EN" "http://www.w3.org/Graphics/SVG/1.1/DTD/svg11.dtd" ><svg xmlns="http://www.w3.org/2000/svg"><metadata></metadata><defs>
<font id="SourceSansPro-Regular" >
<font-face font-family="Source Sans Pro" font-stretch="normal" units-per-em="1000" weight="400" panose-1="2,11,5,3,3,4,3,2,2,4" ascent="984" descent="-273" x-height="486" underline-thickness="50" underline-position="-75" unicode-range="U+00000032-00127339" bbox="-454,-293,2159,968" />
<missing-glyph horiz-adv-x="653" d="M89 0L565 0L565 660L89 660ZM197 58L271 190L325 293L329 293L381 190L454 58ZM325 387L275 481L209 600L444 600L378 481L329 387ZM154 110L154 572L281 340ZM498 110L372 340L498 572Z" />
<glyph glyph-name="space" unicode="&#x20;" horiz-adv-x="200" d="" />
<glyph glyph-name="exclam" unicode="&#x21;" horiz-adv-x="289" d="M116 198L173 198L184 576L186 670L103 670L105 576ZM145 -12C177 -12 204 14 204 50C204 88 177 114 145 114C112 114 85 88 85 50C85 14 112 -12 145 -12Z" />
<glyph glyph-name="quotedbl" unicode="&#x22;" horiz-adv-x="426" d="M99 431L149 431L165 598L168 690L80 690L83 598ZM276 431L326 431L342 598L345 690L257 690L260 598Z" />
<glyph glyph-name="numbersign" unicode="&#x23;" horiz-adv-x="497" d="M90 0L144 0L169 204L301 204L277 0L330 0L355 204L447 204L447 261L362 261L380 409L467 409L467 467L386 467L410 650L357 650L333 467L200 467L223 650L170 650L147 467L55 467L55 409L140 409L122 261L35 261L35 204L115 204ZM176 261L194 409L326 409L308 261Z" />
<glyph glyph-name="dollar" unicode="&#x24;" horiz-adv-x="497" d="M222 -110L282 -110L282 -9C377 4 437 70 437 165C437 380 158 340 158 485C158 543 197 581 258 581C312 581 343 560 380 524L424 573C388 611 346 642 282 649L282 748L222 748L222 647C135 634 77 570 77 481C77 286 356 321 356 159C356 97 319 56 245 56C184 56 133 86 90 123L52 66C94 27 158 -5 222 -11Z" />
<glyph glyph-name="percent" unicode="&#x25;" horiz-adv-x="824" d="M184 254C273 254 333 329 333 462C333 593 273 668 184 668C94 668 35 593 35 462C35 329 94 254 184 254ZM184 305C132 305 97 358 97 462C97 566 132 617 184 617C235 617 270 566 270 462C270 358 235 305 184 305ZM203 -12L259 -12L621 668L565 668ZM641 -12C730 -12 790 63 790 196C790 327 730 402 641 402C551 402 492 327 492 196C492 63 551 -12 641 -12ZM641 39C589 39 554 92 554 196C554 300 589 351 641 351C692 351 727 300 727 196C727 92 692 39 641 39Z" />
<glyph glyph-name="ampersand" unicode="&#x26;" horiz-adv-x="609" d="M232 -12C309 -12 371 18 421 63C474 26 526 1 572 -12L594 56C558 66 516 88 471 119C523 188 560 268 586 354L509 354C489 279 457 214 417 160C355 212 294 277 251 344C324 397 399 452 399 538C399 615 351 668 270 668C179 668 118 600 118 513C118 465 134 413 161 359C94 313 32 258 32 170C32 64 113 -12 232 -12ZM189 514C189 568 221 609 270 609C314 609 332 575 332 537C332 479 280 439 220 399C201 439 189 478 189 514ZM241 54C169 54 112 102 112 175C112 226 148 265 194 302C240 231 302 163 366 107C328 74 286 54 241 54Z" />
<glyph glyph-name="quotesingle" unicode="&#x27;" horiz-adv-x="249" d="M99 431L149 431L165 598L168 690L80 690L83 598Z" />
<glyph glyph-name="parenleft" unicode="&#x28;" horiz-adv-x="303" d="M214 -176L265 -152C188 -25 150 126 150 278C150 430 188 581 265 708L214 732C131 598 82 454 82 278C82 102 131 -42 214 -176Z" />
<glyph glyph-name="parenright" unicode="&#x29;" horiz-adv-x="303" d="M89 -176C172 -42 221 102 221 278C221 454 172 598 89 732L38 708C115 581 153 430 153 278C153 126 115 -25 38 -152Z" />
<glyph glyph-name="asterisk" unicode="&#x2a;" horiz-adv-x="418" d="M138 420L209 506L280 420L319 449L263 543L360 583L345 629L242 605L233 712L184 712L175 604L73 629L58 583L155 543L98 449Z" />
<glyph glyph-name="plus" unicode="&#x2b;" horiz-adv-x="497" d="M216 104L281 104L281 299L463 299L463 361L281 361L281 556L216 556L216 361L34 361L34 299L216 299Z" />
<glyph glyph-name="comma" unicode="&#x2c;" horiz-adv-x="249" d="M67 -170C148 -136 198 -69 198 17C198 77 172 114 129 114C96 114 68 92 68 56C68 19 95 -1 127 -1C130 -1 134 -1 137 0C138 -53 104 -97 47 -122Z" />
<glyph glyph-name="hyphen" unicode="&#x2d;" horiz-adv-x="311" d="M41 219L271 219L271 282L41 282Z" />
<glyph glyph-name="period" unicode="&#x2e;" horiz-adv-x="249" d="M125 -12C157 -12 184 14 184 50C184 88 157 114 125 114C92 114 65 88 65 50C65 14 92 -12 125 -12Z" />
<glyph glyph-name="slash" unicode="&#x2f;" horiz-adv-x="350" d="M10 -160L70 -160L337 710L277 710Z" />
<glyph glyph-name="zero" unicode="&#x30;" horiz-adv-x="497" d="M249 -12C376 -12 453 107 453 321C453 535 376 650 249 650C121 650 44 535 44 321C44 107 121 -12 249 -12ZM249 54C174 54 124 134 124 321C124 508 174 584 249 584C323 584 373 508 373 321C373 134 323 54 249 54Z" />
<glyph glyph-name="one" unicode="&#x31;" horiz-adv-x="497" d="M79 0L439 0L439 68L307 68L307 638L244 638C209 617 167 601 109 591L109 538L225 538L225 68L79 68Z" />
<glyph glyph-name="two" unicode="&#x32;" horiz-adv-x="497" d="M40 0L452 0L452 71L267 71C234 71 195 68 160 65C311 223 420 342 420 462C420 575 347 650 229 650C146 650 89 611 36 553L83 506C120 549 166 583 219 583C300 583 340 531 340 458C340 355 232 240 40 49Z" />
<glyph glyph-name="three" unicode="&#x33;" horiz-adv-x="497" d="M236 -12C353 -12 446 57 446 170C446 258 385 314 308 332L308 336C377 362 424 411 424 488C424 591 344 650 233 650C158 650 99 616 50 570L94 518C132 556 177 583 230 583C298 583 340 544 340 482C340 415 295 363 159 363L159 300C311 300 363 249 363 173C363 102 308 56 231 56C156 56 106 92 68 132L26 78C69 31 134 -12 236 -12Z" />
<glyph glyph-name="four" unicode="&#x34;" horiz-adv-x="497" d="M304 0L382 0L382 176L469 176L469 242L382 242L382 638L290 638L17 230L17 176L304 176ZM104 242L253 460C271 491 289 519 305 550L309 550C307 516 304 461 304 427L304 242Z" />
<glyph glyph-name="five" unicode="&#x35;" horiz-adv-x="497" d="M234 -12C345 -12 449 66 449 204C449 342 360 404 251 404C212 404 183 394 153 378L170 567L417 567L417 638L98 638L77 331L121 303C159 328 186 342 230 342C312 342 366 290 366 202C366 113 304 56 226 56C151 56 103 91 65 129L25 75C69 31 132 -12 234 -12Z" />
<glyph glyph-name="six" unicode="&#x36;" horiz-adv-x="497" d="M268 -12C371 -12 457 71 457 193C457 324 385 390 275 390C223 390 166 359 126 310C130 512 205 581 294 581C334 581 373 562 399 531L445 582C409 621 360 650 291 650C164 650 48 551 48 295C48 90 143 -12 268 -12ZM268 53C187 53 138 120 128 244C168 303 220 328 261 328C340 328 379 276 379 193C379 109 331 53 268 53Z" />
<glyph glyph-name="seven" unicode="&#x37;" horiz-adv-x="497" d="M177 0L262 0C273 249 304 394 455 587L455 638L44 638L44 567L362 567C236 392 188 240 177 0Z" />
<glyph glyph-name="eight" unicode="&#x38;" horiz-adv-x="497" d="M250 -12C374 -12 456 63 456 158C456 244 402 289 345 322L345 326C384 356 433 413 433 480C433 579 364 650 253 650C150 650 72 584 72 486C72 419 114 372 161 339L161 335C101 303 41 246 41 163C41 62 130 -12 250 -12ZM295 348C218 378 148 410 148 486C148 548 192 589 251 589C321 589 362 539 362 476C362 429 338 386 295 348ZM252 49C174 49 115 100 115 171C115 229 153 276 204 310C296 273 377 243 377 161C377 95 326 49 252 49Z" />
<glyph glyph-name="nine" unicode="&#x39;" horiz-adv-x="497" d="M235 310C156 310 117 362 117 445C117 529 166 585 228 585C309 585 358 519 369 395C328 335 277 310 235 310ZM205 -12C332 -12 448 87 448 343C448 548 354 650 228 650C126 650 40 567 40 445C40 314 111 248 221 248C274 248 331 279 371 330C368 126 292 56 202 56C162 56 123 76 97 107L51 55C86 17 137 -12 205 -12Z" />
<glyph glyph-name="colon" unicode="&#x3a;" horiz-adv-x="249" d="M125 349C157 349 184 375 184 411C184 449 157 475 125 475C92 475 65 449 65 411C65 375 92 349 125 349ZM125 -12C157 -12 184 14 184 50C184 88 157 114 125 114C92 114 65 88 65 50C65 14 92 -12 125 -12Z" />
<glyph glyph-name="semicolon" unicode="&#x3b;" horiz-adv-x="249" d="M125 349C157 349 184 375 184 411C184 449 157 475 125 475C92 475 65 449 65 411C65 375 92 349 125 349ZM67 -170C148 -136 198 -69 198 17C198 77 172 114 129 114C96 114 68 92 68 56C68 19 95 -1 127 -1C130 -1 134 -1 137 0C138 -53 104 -97 47 -122Z" />
<glyph glyph-name="less" unicode="&#x3c;" horiz-adv-x="497" d="M463 131L463 202L252 280L118 330L118 334L252 384L463 462L463 533L34 365L34 299Z" />
<glyph glyph-name="equal" unicode="&#x3d;" horiz-adv-x="497" d="M34 406L463 406L463 468L34 468ZM34 192L463 192L463 254L34 254Z" />
<glyph glyph-name="greater" unicode="&#x3e;" horiz-adv-x="497" d="M34 131L463 299L463 365L34 533L34 462L245 384L379 334L379 330L245 280L34 202Z" />
<glyph glyph-name="question" unicode="&#x3f;" horiz-adv-x="425" d="M160 198L232 198C216 338 377 391 377 522C377 621 311 682 210 682C137 682 80 647 38 599L85 556C116 592 156 614 200 614C264 614 297 570 297 517C297 411 138 354 160 198ZM198 -12C231 -12 258 14 258 50C258 88 231 114 198 114C165 114 139 88 139 50C139 14 165 -12 198 -12Z" />
<glyph glyph-name="at" unicode="&#x40;" horiz-adv-x="847" d="M403 -155C472 -155 535 -139 593 -104L571 -55C526 -81 470 -100 409 -100C239 -100 111 11 111 206C111 440 283 591 461 591C643 591 738 473 738 312C738 182 667 105 604 105C549 105 530 143 550 222L589 422L534 422L523 382L521 382C503 415 475 430 441 430C324 430 249 305 249 198C249 107 301 57 369 57C413 57 458 86 491 125L493 125C500 75 542 49 596 49C687 49 796 140 796 315C796 512 670 646 468 646C244 646 51 471 51 203C51 -30 207 -155 403 -155ZM385 113C345 113 315 139 315 203C315 278 363 373 442 373C469 373 487 362 506 331L477 172C443 131 413 113 385 113Z" />
<glyph glyph-name="A" unicode="&#x41;" horiz-adv-x="544" d="M203 367C227 440 248 512 268 588L272 588C293 512 314 440 338 367L369 267L172 267ZM3 0L88 0L151 200L390 200L452 0L541 0L319 656L225 656Z" />
<glyph glyph-name="B" unicode="&#x42;" horiz-adv-x="588" d="M90 0L299 0C446 0 548 63 548 192C548 282 493 334 414 349L414 353C476 373 510 431 510 496C510 611 418 656 285 656L90 656ZM173 377L173 590L274 590C376 590 428 561 428 485C428 418 382 377 270 377ZM173 66L173 313L287 313C402 313 466 276 466 195C466 107 400 66 287 66Z" />
<glyph glyph-name="C" unicode="&#x43;" horiz-adv-x="571" d="M338 -12C423 -12 487 23 539 83L493 135C451 89 404 61 341 61C217 61 138 165 138 330C138 493 220 595 344 595C400 595 443 570 478 533L523 587C485 630 423 668 343 668C176 668 52 539 52 328C52 114 174 -12 338 -12Z" />
<glyph glyph-name="D" unicode="&#x44;" horiz-adv-x="615" d="M90 0L258 0C456 0 564 122 564 331C564 539 456 656 254 656L90 656ZM173 68L173 588L248 588C401 588 478 496 478 331C478 165 401 68 248 68Z" />
<glyph glyph-name="E" unicode="&#x45;" horiz-adv-x="527" d="M90 0L478 0L478 71L173 71L173 309L422 309L422 380L173 380L173 586L468 586L468 656L90 656Z" />
<glyph glyph-name="F" unicode="&#x46;" horiz-adv-x="494" d="M90 0L173 0L173 294L423 294L423 364L173 364L173 586L468 586L468 656L90 656Z" />
<glyph glyph-name="G" unicode="&#x47;" horiz-adv-x="617" d="M348 -12C436 -12 508 20 550 64L550 340L335 340L335 271L474 271L474 100C448 76 403 61 356 61C216 61 138 165 138 330C138 493 223 595 355 595C421 595 463 567 496 533L542 587C504 627 444 668 353 668C179 668 52 539 52 328C52 114 175 -12 348 -12Z" />
<glyph glyph-name="H" unicode="&#x48;" horiz-adv-x="652" d="M90 0L173 0L173 309L478 309L478 0L562 0L562 656L478 656L478 381L173 381L173 656L90 656Z" />
<glyph glyph-name="I" unicode="&#x49;" horiz-adv-x="263" d="M90 0L173 0L173 656L90 656Z" />
<glyph glyph-name="J" unicode="&#x4a;" horiz-adv-x="480" d="M212 -12C340 -12 393 80 393 193L393 656L309 656L309 201C309 101 274 61 204 61C157 61 120 83 91 135L31 93C69 24 129 -12 212 -12Z" />
<glyph glyph-name="K" unicode="&#x4b;" horiz-adv-x="579" d="M90 0L173 0L173 208L286 341L482 0L575 0L338 406L543 656L449 656L176 327L173 327L173 656L90 656Z" />
<glyph glyph-name="L" unicode="&#x4c;" horiz-adv-x="486" d="M90 0L460 0L460 71L173 71L173 656L90 656Z" />
<glyph glyph-name="M" unicode="&#x4d;" horiz-adv-x="727" d="M90 0L165 0L165 361C165 419 159 497 155 555L159 555L211 406L335 66L390 66L514 406L566 555L570 555C566 497 559 419 559 361L559 0L637 0L637 656L536 656L412 306C396 261 383 214 367 169L363 169C347 214 332 261 316 306L190 656L90 656Z" />
<glyph glyph-name="N" unicode="&#x4e;" horiz-adv-x="647" d="M90 0L169 0L169 343C169 412 163 482 158 548L162 548L233 413L471 0L557 0L557 656L478 656L478 317C478 248 484 174 488 108L484 108L413 244L176 656L90 656Z" />
<glyph glyph-name="O" unicode="&#x4f;" horiz-adv-x="664" d="M332 -12C497 -12 613 120 613 331C613 540 497 668 332 668C167 668 52 541 52 331C52 120 167 -12 332 -12ZM332 61C215 61 138 167 138 331C138 494 215 595 332 595C449 595 526 494 526 331C526 167 449 61 332 61Z" />
<glyph glyph-name="P" unicode="&#x50;" horiz-adv-x="566" d="M90 0L173 0L173 260L281 260C425 260 523 325 523 463C523 607 424 656 277 656L90 656ZM173 328L173 589L267 589C382 589 440 558 440 463C440 370 385 328 271 328Z" />
<glyph glyph-name="Q" unicode="&#x51;" horiz-adv-x="664" d="M332 57C215 57 138 163 138 331C138 494 215 595 332 595C449 595 526 494 526 331C526 163 449 57 332 57ZM533 -165C572 -165 607 -158 627 -150L611 -86C593 -91 571 -95 542 -95C471 -95 411 -66 381 -8C520 16 613 142 613 331C613 540 497 668 332 668C167 668 52 541 52 331C52 138 148 11 291 -9C329 -99 412 -165 533 -165Z" />
<glyph glyph-name="R" unicode="&#x52;" horiz-adv-x="569" d="M90 0L173 0L173 277L292 277L450 0L544 0L377 286C467 308 525 370 525 472C525 608 429 656 295 656L90 656ZM173 345L173 589L283 589C385 589 442 558 442 472C442 387 385 345 283 345Z" />
<glyph glyph-name="S" unicode="&#x53;" horiz-adv-x="534" d="M272 -12C410 -12 495 71 495 175C495 272 436 317 360 350L267 390C215 412 158 436 158 499C158 558 207 595 280 595C341 595 389 571 429 533L474 587C427 635 358 668 280 668C161 668 74 594 74 494C74 398 145 351 207 325L301 284C363 256 410 235 410 168C410 104 359 61 273 61C205 61 139 94 92 143L42 85C99 26 180 -12 272 -12Z" />
<glyph glyph-name="T" unicode="&#x54;" horiz-adv-x="536" d="M226 0L310 0L310 586L508 586L508 656L28 656L28 586L226 586Z" />
<glyph glyph-name="U" unicode="&#x55;" horiz-adv-x="645" d="M323 -12C457 -12 558 60 558 271L558 656L478 656L478 269C478 111 410 61 323 61C237 61 170 111 170 269L170 656L87 656L87 271C87 60 189 -12 323 -12Z" />
<glyph glyph-name="V" unicode="&#x56;" horiz-adv-x="515" d="M210 0L307 0L515 656L430 656L325 302C302 224 286 162 262 85L258 85C233 162 218 224 194 302L89 656L0 656Z" />
<glyph glyph-name="W" unicode="&#x57;" horiz-adv-x="786" d="M162 0L261 0L358 395C369 446 381 493 391 544L395 544C405 493 415 446 427 395L526 0L626 0L762 656L682 656L613 299C600 229 588 158 576 87L572 87C556 158 540 230 524 299L433 656L357 656L266 299C251 229 235 158 220 87L216 87C204 158 190 228 178 299L109 656L23 656Z" />
<glyph glyph-name="X" unicode="&#x58;" horiz-adv-x="513" d="M15 0L103 0L198 177C214 209 231 242 250 282L254 282C275 242 293 209 310 177L406 0L498 0L307 335L486 656L398 656L311 488C295 458 282 431 264 393L260 393C240 431 226 458 209 488L120 656L28 656L206 339Z" />
<glyph glyph-name="Y" unicode="&#x59;" horiz-adv-x="476" d="M196 0L280 0L280 254L477 656L390 656L306 471C286 423 263 377 240 328L236 328C214 377 194 423 173 471L88 656L-1 656L196 254Z" />
<glyph glyph-name="Z" unicode="&#x5a;" horiz-adv-x="539" d="M45 0L497 0L497 71L148 71L494 607L494 656L76 656L76 586L390 586L45 50Z" />
<glyph glyph-name="bracketleft" unicode="&#x5b;" horiz-adv-x="303" d="M94 -152L273 -152L273 -105L156 -105L156 661L273 661L273 708L94 708Z" />
<glyph glyph-name="backslash" unicode="&#x5c;" horiz-adv-x="350" d="M281 -160L340 -160L73 710L14 710Z" />
<glyph glyph-name="bracketright" unicode="&#x5d;" horiz-adv-x="303" d="M31 -152L209 -152L209 708L31 708L31 661L147 661L147 -105L31 -105Z" />
<glyph glyph-name="asciicircum" unicode="&#x5e;" horiz-adv-x="497" d="M60 284L132 284L197 460L247 593L251 593L300 460L365 284L437 284L285 670L212 670Z" />
<glyph glyph-name="underscore" unicode="&#x5f;" horiz-adv-x="500" d="M12 -126L488 -126L488 -71L12 -71Z" />
<glyph glyph-name="grave" unicode="&#x60;" horiz-adv-x="542" d="M285 573L327 614L186 781L128 726Z" />
<glyph glyph-name="a" unicode="&#x61;" horiz-adv-x="504" d="M194 -12C255 -12 309 20 355 58L358 58L365 0L433 0L433 298C433 419 383 498 264 498C186 498 118 464 73 435L105 378C143 404 194 430 250 430C330 430 350 370 350 308C143 285 52 232 52 126C52 39 113 -12 194 -12ZM218 54C170 54 132 77 132 132C132 194 188 234 350 254L350 119C303 77 265 54 218 54Z" />
<glyph glyph-name="b" unicode="&#x62;" horiz-adv-x="553" d="M297 -12C408 -12 507 85 507 251C507 401 440 498 314 498C260 498 206 469 162 430L164 518L164 712L82 712L82 0L148 0L155 50L158 50C201 11 252 -12 297 -12ZM283 57C251 57 207 71 164 108L164 363C210 406 253 429 294 429C386 429 422 357 422 250C422 130 363 57 283 57Z" />
<glyph glyph-name="c" unicode="&#x63;" horiz-adv-x="456" d="M274 -12C332 -12 387 11 431 50L395 105C365 78 326 56 281 56C192 56 131 131 131 242C131 354 195 430 283 430C322 430 352 412 380 387L422 441C388 472 344 498 280 498C155 498 46 405 46 242C46 81 145 -12 274 -12Z" />
<glyph glyph-name="d" unicode="&#x64;" horiz-adv-x="555" d="M248 -12C305 -12 357 20 395 57L398 57L405 0L473 0L473 712L390 712L390 525L394 442C351 477 314 498 258 498C147 498 47 400 47 242C47 80 126 -12 248 -12ZM266 57C181 57 132 127 132 243C132 354 194 429 272 429C312 429 349 415 390 378L390 124C350 79 311 57 266 57Z" />
<glyph glyph-name="e" unicode="&#x65;" horiz-adv-x="496" d="M279 -12C345 -12 397 11 439 38L410 92C374 69 335 54 289 54C196 54 133 120 127 223L455 223C457 235 458 253 458 270C458 409 388 498 264 498C153 498 46 401 46 242C46 83 149 -12 279 -12ZM126 282C136 378 198 433 266 433C342 433 386 380 386 282Z" />
<glyph glyph-name="f" unicode="&#x66;" horiz-adv-x="292" d="M96 0L178 0L178 419L281 419L281 486L178 486L178 563C178 625 200 657 246 657C264 657 283 653 301 645L319 708C297 717 268 724 238 724C141 724 96 662 96 563L96 486L30 481L30 419L96 419Z" />
<glyph glyph-name="g" unicode="&#x67;" horiz-adv-x="504" d="M246 -224C397 -224 492 -146 492 -56C492 25 435 60 322 60L228 60C162 60 142 82 142 113C142 140 156 156 173 171C195 160 222 154 246 154C345 154 424 219 424 323C424 364 407 401 384 423L484 423L484 486L315 486C297 493 273 498 246 498C147 498 63 431 63 325C63 267 94 220 126 194L126 190C101 173 73 141 73 100C73 62 92 36 116 21L116 17C72 -13 45 -52 45 -93C45 -177 127 -224 246 -224ZM246 209C190 209 143 254 143 325C143 396 189 438 246 438C303 438 349 396 349 325C349 254 302 209 246 209ZM258 -167C170 -167 117 -134 117 -82C117 -54 132 -25 167 0C188 -6 211 -8 230 -8L314 -8C377 -8 412 -23 412 -68C412 -119 351 -167 258 -167Z" />
<glyph glyph-name="h" unicode="&#x68;" horiz-adv-x="544" d="M82 0L164 0L164 352C213 401 247 427 297 427C361 427 389 388 389 297L389 0L471 0L471 308C471 432 425 498 323 498C256 498 207 462 161 418L164 518L164 712L82 712Z" />
<glyph glyph-name="i" unicode="&#x69;" horiz-adv-x="246" d="M82 0L164 0L164 486L82 486ZM124 586C156 586 181 608 181 639C181 671 156 692 124 692C92 692 67 671 67 639C67 608 92 586 124 586Z" />
<glyph glyph-name="j" unicode="&#x6a;" horiz-adv-x="247" d="M32 -217C129 -217 165 -154 165 -55L165 486L83 486L83 -55C83 -114 71 -150 23 -150C6 -150 -11 -146 -23 -142L-40 -204C-23 -211 2 -217 32 -217ZM125 586C156 586 181 608 181 639C181 671 156 692 125 692C93 692 68 671 68 639C68 608 93 586 125 586Z" />
<glyph glyph-name="k" unicode="&#x6b;" horiz-adv-x="495" d="M82 0L163 0L163 128L254 234L396 0L486 0L301 291L464 486L373 486L166 230L163 230L163 712L82 712Z" />
<glyph glyph-name="l" unicode="&#x6c;" horiz-adv-x="255" d="M169 -12C191 -12 205 -9 216 -4L205 58C196 56 192 56 187 56C175 56 164 66 164 92L164 712L82 712L82 98C82 27 107 -12 169 -12Z" />
<glyph glyph-name="m" unicode="&#x6d;" horiz-adv-x="829" d="M82 0L164 0L164 352C209 402 250 427 286 427C348 427 377 388 377 297L377 0L459 0L459 352C504 402 543 427 581 427C642 427 671 388 671 297L671 0L753 0L753 308C753 432 705 498 605 498C546 498 496 460 445 405C425 463 385 498 311 498C253 498 202 462 160 416L157 416L150 486L82 486Z" />
<glyph glyph-name="n" unicode="&#x6e;" horiz-adv-x="547" d="M82 0L164 0L164 352C213 401 247 427 297 427C361 427 389 388 389 297L389 0L471 0L471 308C471 432 425 498 323 498C256 498 206 462 160 416L157 416L150 486L82 486Z" />
<glyph glyph-name="o" unicode="&#x6f;" horiz-adv-x="542" d="M271 -12C390 -12 496 81 496 242C496 405 390 498 271 498C152 498 46 405 46 242C46 81 152 -12 271 -12ZM271 56C188 56 131 131 131 242C131 354 188 430 271 430C355 430 411 354 411 242C411 131 355 56 271 56Z" />
<glyph glyph-name="p" unicode="&#x70;" horiz-adv-x="555" d="M82 -205L164 -205L164 -41L162 44C207 9 252 -12 297 -12C408 -12 507 85 507 250C507 401 440 498 315 498C258 498 204 467 160 430L157 430L150 486L82 486ZM283 57C251 57 208 71 164 108L164 363C212 406 253 429 294 429C386 429 422 357 422 250C422 130 363 57 283 57Z" />
<glyph glyph-name="q" unicode="&#x71;" horiz-adv-x="555" d="M390 -205L473 -205L473 486L407 486L399 440L397 440C353 478 314 498 258 498C147 498 47 400 47 242C47 80 126 -12 248 -12C304 -12 355 18 394 56L390 -32ZM266 57C181 57 132 127 132 243C132 354 194 429 272 429C312 429 349 415 390 378L390 124C350 79 311 57 266 57Z" />
<glyph glyph-name="r" unicode="&#x72;" horiz-adv-x="347" d="M82 0L164 0L164 312C197 394 246 424 287 424C307 424 318 421 334 416L350 488C334 495 319 498 298 498C243 498 193 459 160 398L157 398L150 486L82 486Z" />
<glyph glyph-name="s" unicode="&#x73;" horiz-adv-x="419" d="M209 -12C324 -12 387 54 387 133C387 225 309 254 239 280C184 301 131 318 131 364C131 401 159 434 220 434C263 434 298 416 331 391L370 443C333 473 280 498 219 498C114 498 52 438 52 360C52 278 128 245 197 220C250 200 308 178 308 128C308 86 276 52 212 52C154 52 111 76 69 110L28 55C74 17 140 -12 209 -12Z" />
<glyph glyph-name="t" unicode="&#x74;" horiz-adv-x="338" d="M235 -12C265 -12 298 -3 325 6L309 68C293 62 271 55 254 55C198 55 179 89 179 149L179 419L310 419L310 486L179 486L179 622L110 622L100 486L24 481L24 419L96 419L96 150C96 54 131 -12 235 -12Z" />
<glyph glyph-name="u" unicode="&#x75;" horiz-adv-x="544" d="M224 -12C291 -12 339 23 384 76L387 76L394 0L462 0L462 486L380 486L380 141C334 84 299 59 249 59C185 59 158 98 158 189L158 486L75 486L75 178C75 54 121 -12 224 -12Z" />
<glyph glyph-name="v" unicode="&#x76;" horiz-adv-x="467" d="M187 0L283 0L455 486L374 486L282 210C268 162 252 113 238 67L234 67C219 113 203 162 189 210L97 486L12 486Z" />
<glyph glyph-name="w" unicode="&#x77;" horiz-adv-x="718" d="M159 0L255 0L323 260C336 306 346 352 357 401L361 401C373 352 382 307 394 261L464 0L564 0L694 486L616 486L545 205C535 159 526 115 515 70L511 70C500 115 489 159 477 205L401 486L321 486L246 205C234 160 224 115 213 70L209 70C200 115 191 159 180 205L108 486L24 486Z" />
<glyph glyph-name="x" unicode="&#x78;" horiz-adv-x="446" d="M14 0L100 0L166 113C182 143 198 172 215 200L219 200C237 172 255 142 272 113L343 0L432 0L274 245L421 486L335 486L276 379C261 353 246 325 232 298L228 298C211 325 195 353 180 379L115 486L26 486L173 254Z" />
<glyph glyph-name="y" unicode="&#x79;" horiz-adv-x="467" d="M90 -209C188 -209 238 -136 272 -40L455 486L375 486L288 217C275 174 261 124 247 80L243 80C228 125 211 175 196 217L97 486L12 486L207 -1L196 -37C176 -97 141 -141 86 -141C74 -141 59 -137 49 -134L33 -199C49 -205 68 -209 90 -209Z" />
<glyph glyph-name="z" unicode="&#x7a;" horiz-adv-x="425" d="M31 0L399 0L399 67L135 67L391 442L391 486L59 486L59 419L287 419L31 44Z" />
<glyph glyph-name="braceleft" unicode="&#x7b;" horiz-adv-x="303" d="M228 -152L273 -152L273 -105L246 -105C192 -105 178 -79 178 -14C178 47 184 99 184 167C184 231 167 264 124 276L124 280C167 292 184 324 184 389C184 457 178 509 178 570C178 635 192 661 246 661L273 661L273 708L228 708C149 708 111 678 111 575C111 502 120 449 120 381C120 343 102 305 34 304L34 252C102 251 120 213 120 174C120 107 111 54 111 -19C111 -122 149 -152 228 -152Z" />
<glyph glyph-name="bar" unicode="&#x7c;" horiz-adv-x="241" d="M92 -250L150 -250L150 750L92 750Z" />
<glyph glyph-name="braceright" unicode="&#x7d;" horiz-adv-x="303" d="M31 -152L75 -152C155 -152 192 -122 192 -19C192 54 183 107 183 174C183 213 202 251 269 252L269 304C202 305 183 343 183 381C183 449 192 502 192 575C192 678 155 708 75 708L31 708L31 661L57 661C111 661 125 635 125 570C125 509 120 457 120 389C120 324 136 292 179 280L179 276C136 264 120 231 120 167C120 99 125 47 125 -14C125 -79 111 -105 57 -105L31 -105Z" />
<glyph glyph-name="asciitilde" unicode="&#x7e;" horiz-adv-x="497" d="M336 257C379 257 425 283 461 346L415 380C392 337 367 319 338 319C282 319 240 403 161 403C118 403 72 377 36 313L82 280C105 323 130 341 159 341C215 341 257 257 336 257Z" />
<glyph glyph-name="uni00A0" unicode="&#xa0;" horiz-adv-x="202" d="" />
<glyph glyph-name="exclamdown" unicode="&#xa1;" horiz-adv-x="289" d="M103 -184L186 -184L184 -90L173 288L116 288L105 -90ZM145 372C177 372 204 398 204 436C204 472 177 498 145 498C112 498 85 472 85 436C85 398 112 372 145 372Z" />
<glyph glyph-name="cent" unicode="&#xa2;" horiz-adv-x="497" d="M143 310C143 398 189 460 262 477L262 142C187 159 143 221 143 310ZM262 -33L314 -33L314 70C366 74 415 98 454 133L418 185C391 161 356 141 314 138L314 482C349 480 378 464 405 440L445 492C414 521 372 547 314 550L314 653L262 653L262 547C149 531 61 448 61 310C61 169 143 85 262 71Z" />
<glyph glyph-name="sterling" unicode="&#xa3;" horiz-adv-x="497" d="M54 0L453 0L453 71L172 71L172 75C212 116 234 159 234 229C234 249 232 267 229 285L375 285L375 341L216 341C204 383 192 422 192 464C192 533 231 581 303 581C348 581 379 559 404 528L452 575C417 618 368 650 297 650C186 650 111 579 111 466C111 424 125 383 138 341L120 341L53 337L53 285L153 285C157 267 160 249 160 230C160 155 122 87 54 50Z" />
<glyph glyph-name="currency" unicode="&#xa4;" horiz-adv-x="497" d="M70 103L138 172C169 147 208 134 249 134C288 134 328 147 359 172L427 103L471 148L406 213C429 244 443 283 443 329C443 375 429 415 406 446L471 512L427 557L359 487C328 511 288 524 249 524C208 524 169 511 138 487L70 557L26 512L90 446C67 415 54 375 54 329C54 283 67 244 90 213L26 148ZM249 195C184 195 130 249 130 329C130 409 184 463 249 463C313 463 367 409 367 329C367 249 313 195 249 195Z" />
<glyph glyph-name="yen" unicode="&#xa5;" horiz-adv-x="497" d="M207 0L289 0L289 158L452 158L452 206L289 206L289 271L452 271L452 318L310 318L474 638L390 638L312 467C292 423 273 379 251 332L247 332C226 379 207 423 187 467L109 638L23 638L186 318L45 318L45 271L207 271L207 206L45 206L45 158L207 158Z" />
<glyph glyph-name="brokenbar" unicode="&#xa6;" horiz-adv-x="241" d="M92 291L150 291L150 750L92 750ZM92 -250L150 -250L150 214L92 214Z" />
<glyph glyph-name="section" unicode="&#xa7;" horiz-adv-x="497" d="M117 348C117 389 140 414 178 435C261 387 380 368 380 278C380 234 359 211 320 193C237 242 117 260 117 348ZM236 -64C330 -64 397 -6 397 73C397 107 386 133 367 155C418 184 452 221 452 284C452 468 175 449 175 557C175 591 198 620 254 620C298 620 333 600 365 574L405 627C367 658 314 684 251 684C151 684 99 623 99 554C99 519 111 493 131 472C81 444 45 401 45 343C45 158 321 183 321 69C321 31 289 0 236 0C183 0 146 20 113 52L63 7C104 -37 165 -64 236 -64Z" />
<glyph glyph-name="dieresis" unicode="&#xa8;" horiz-adv-x="542" d="M175 587C203 587 224 609 224 637C224 665 203 687 175 687C146 687 125 665 125 637C125 609 146 587 175 587ZM367 587C396 587 417 609 417 637C417 665 396 687 367 687C339 687 318 665 318 637C318 609 339 587 367 587Z" />
<glyph glyph-name="copyright" unicode="&#xa9;" horiz-adv-x="744" d="M372 -11C546 -11 695 119 695 323C695 526 546 653 372 653C198 653 49 526 49 323C49 119 198 -11 372 -11ZM372 31C221 31 96 148 96 323C96 497 221 612 372 612C523 612 648 497 648 323C648 148 523 31 372 31ZM380 125C440 125 478 150 515 182L485 224C456 199 425 180 383 180C311 180 264 235 264 323C264 401 313 457 386 457C421 457 446 442 473 416L508 455C476 487 439 512 383 512C286 512 198 439 198 323C198 199 279 125 380 125Z" />
<glyph glyph-name="ordfeminine" unicode="&#xaa;" horiz-adv-x="345" d="M136 387C177 387 210 408 237 432L241 432L248 395L298 395L298 591C298 675 263 724 183 724C131 724 83 702 50 682L73 639C100 656 139 673 174 673C221 673 235 642 236 600C98 586 37 551 37 481C37 424 77 387 136 387ZM154 436C120 436 98 452 98 486C98 523 133 550 236 561L236 476C207 449 181 436 154 436Z" />
<glyph glyph-name="guillemotleft" unicode="&#xab;" horiz-adv-x="429" d="M181 66L217 94L99 252L217 408L181 438L45 283L45 221ZM339 66L375 94L257 252L375 408L339 438L203 283L203 221Z" />
<glyph glyph-name="logicalnot" unicode="&#xac;" horiz-adv-x="497" d="M397 104L463 104L463 361L34 361L34 299L397 299Z" />
<glyph glyph-name="uni00AD" unicode="&#xad;" horiz-adv-x="311" d="M41 219L271 219L271 282L41 282Z" />
<glyph glyph-name="registered" unicode="&#xae;" horiz-adv-x="423" d="M211 319C315 319 400 399 400 516C400 633 315 713 211 713C108 713 23 633 23 516C23 399 108 319 211 319ZM211 356C127 356 63 421 63 516C63 610 127 677 211 677C295 677 360 610 360 516C360 421 295 356 211 356ZM139 417L180 417L180 487L221 487L256 417L302 417L256 500C278 508 293 531 293 555C293 603 257 620 215 620L139 620ZM180 519L180 586L208 586C238 586 249 573 249 553C249 531 233 519 206 519Z" />
<glyph glyph-name="macron" unicode="&#xaf;" horiz-adv-x="542" d="M138 601L404 601L404 658L138 658Z" />
<glyph glyph-name="degree" unicode="&#xb0;" horiz-adv-x="331" d="M166 429C233 429 291 479 291 556C291 635 233 685 166 685C99 685 41 635 41 556C41 479 99 429 166 429ZM166 475C122 475 91 509 91 556C91 605 122 639 166 639C210 639 241 605 241 556C241 509 210 475 166 475Z" />
<glyph glyph-name="plusminus" unicode="&#xb1;" horiz-adv-x="497" d="M216 127L281 127L281 304L463 304L463 366L281 366L281 556L216 556L216 366L34 366L34 304L216 304ZM34 0L463 0L463 62L34 62Z" />
<glyph glyph-name="two.sups" unicode="&#xb2;" horiz-adv-x="367" d="M52 395L320 395L320 450L155 450C238 535 300 596 300 671C300 753 248 797 170 797C117 797 70 766 40 721L78 686C100 718 129 743 162 743C208 743 237 712 237 661C237 602 173 541 52 432Z" />
<glyph glyph-name="three.sups" unicode="&#xb3;" horiz-adv-x="367" d="M180 383C256 383 319 428 319 500C319 552 279 585 235 596C275 615 303 646 303 692C303 758 246 797 179 797C125 797 85 772 51 733L90 699C112 726 140 746 169 746C212 746 240 721 240 684C240 644 201 614 134 614L134 573C210 573 255 549 255 504C255 459 219 434 177 434C136 434 102 456 78 492L35 459C65 415 117 383 180 383Z" />
<glyph glyph-name="acute" unicode="&#xb4;" horiz-adv-x="542" d="M257 573L414 726L356 781L215 614Z" />
<glyph glyph-name="uni00B5" unicode="&#xb5;" horiz-adv-x="562" d="M82 -179L165 -179C160 -102 159 -59 158 37C181 -1 213 -10 252 -10C305 -10 352 20 387 82L389 82C396 17 422 -12 477 -12C504 -12 521 -7 535 0L524 62C513 58 503 56 495 56C474 56 459 68 459 95C459 212 463 355 465 486L382 486L382 154C337 74 297 59 253 59C190 59 164 103 164 189L164 486L82 486Z" />
<glyph glyph-name="paragraph" unicode="&#xb6;" horiz-adv-x="560" d="M380 -80L464 -80L464 656L380 656ZM293 226L326 226L326 656L282 656C144 656 41 600 41 443C41 292 148 226 293 226Z" />
<glyph glyph-name="periodcentered" unicode="&#xb7;" horiz-adv-x="249" d="M125 259C157 259 184 285 184 321C184 359 157 385 125 385C92 385 65 359 65 321C65 285 92 259 125 259Z" />
<glyph glyph-name="cedilla" unicode="&#xb8;" horiz-adv-x="542" d="M190 -226C296 -221 355 -193 355 -135C355 -94 328 -75 282 -64L311 3L258 3L214 -88C271 -96 291 -110 291 -136C291 -165 266 -180 182 -186Z" />
<glyph glyph-name="one.sups" unicode="&#xb9;" horiz-adv-x="367" d="M172 395L236 395L236 785L184 785C157 765 131 753 87 745L87 703L172 703Z" />
<glyph glyph-name="ordmasculine" unicode="&#xba;" horiz-adv-x="365" d="M182 387C264 387 334 449 334 555C334 663 264 724 182 724C99 724 30 663 30 555C30 449 99 387 182 387ZM182 438C127 438 93 486 93 555C93 626 127 673 182 673C237 673 270 626 270 555C270 486 237 438 182 438Z" />
<glyph glyph-name="guillemotright" unicode="&#xbb;" horiz-adv-x="429" d="M89 66L226 221L226 283L89 438L54 408L172 252L54 94ZM247 66L384 221L384 283L247 438L212 408L330 252L212 94Z" />
<glyph glyph-name="onequarter" unicode="&#xbc;" horiz-adv-x="781" d="M148 266L212 266L212 656L160 656C133 636 107 624 63 616L63 574L148 574ZM180 -12L236 -12L598 668L542 668ZM633 0L691 0L691 104L749 104L749 150L691 150L691 390L619 390L455 137L455 104L633 104ZM522 150L583 248L633 329L637 329L633 220L633 150Z" />
<glyph glyph-name="onehalf" unicode="&#xbd;" horiz-adv-x="808" d="M148 266L212 266L212 656L160 656C133 636 107 624 63 616L63 574L148 574ZM160 -12L216 -12L578 668L522 668ZM493 0L761 0L761 55L596 55C679 140 741 201 741 276C741 358 689 402 611 402C558 402 511 371 481 326L519 291C541 323 570 348 603 348C649 348 678 317 678 266C678 207 614 146 493 37Z" />
<glyph glyph-name="threequarters" unicode="&#xbe;" horiz-adv-x="796" d="M179 254C255 254 318 299 318 371C318 423 278 456 234 467C274 486 302 517 302 563C302 629 245 668 178 668C124 668 84 643 50 604L89 570C111 597 139 617 168 617C211 617 239 592 239 555C239 515 200 485 133 485L133 444C209 444 254 420 254 375C254 330 218 305 176 305C135 305 101 327 77 363L34 330C64 286 116 254 179 254ZM218 -12L274 -12L636 668L580 668ZM648 0L706 0L706 104L764 104L764 150L706 150L706 390L634 390L470 137L470 104L648 104ZM537 150L598 248L648 329L652 329L648 220L648 150Z" />
<glyph glyph-name="questiondown" unicode="&#xbf;" horiz-adv-x="425" d="M215 -196C288 -196 344 -160 387 -113L339 -70C308 -106 269 -127 225 -127C160 -127 128 -84 128 -31C128 75 287 132 265 288L192 288C209 148 48 95 48 -36C48 -135 114 -196 215 -196ZM227 372C259 372 286 398 286 436C286 472 259 498 227 498C194 498 167 472 167 436C167 398 194 372 227 372Z" />
<glyph glyph-name="Agrave" unicode="&#xc0;" horiz-adv-x="544" d="M203 367C227 440 248 512 268 588L272 588C293 512 314 440 338 367L369 267L172 267ZM3 0L88 0L151 200L390 200L452 0L541 0L319 656L225 656ZM287 697L324 739L182 867L135 812Z" />
<glyph glyph-name="Aacute" unicode="&#xc1;" horiz-adv-x="544" d="M203 367C227 440 248 512 268 588L272 588C293 512 314 440 338 367L369 267L172 267ZM3 0L88 0L151 200L390 200L452 0L541 0L319 656L225 656ZM253 697L405 812L358 867L216 739Z" />
<glyph glyph-name="Acircumflex" unicode="&#xc2;" horiz-adv-x="544" d="M203 367C227 440 248 512 268 588L272 588C293 512 314 440 338 367L369 267L172 267ZM3 0L88 0L151 200L390 200L452 0L541 0L319 656L225 656ZM122 725L158 699L268 792L272 792L382 699L418 725L313 838L227 838Z" />
<glyph glyph-name="Atilde" unicode="&#xc3;" horiz-adv-x="544" d="M203 367C227 440 248 512 268 588L272 588C293 512 314 440 338 367L369 267L172 267ZM3 0L88 0L151 200L390 200L452 0L541 0L319 656L225 656ZM345 709C405 709 443 755 447 832L391 836C386 793 368 770 343 770C296 770 270 841 195 841C135 841 97 794 93 718L149 714C153 757 172 780 197 780C244 780 270 709 345 709Z" />
<glyph glyph-name="Adieresis" unicode="&#xc4;" horiz-adv-x="544" d="M203 367C227 440 248 512 268 588L272 588C293 512 314 440 338 367L369 267L172 267ZM3 0L88 0L151 200L390 200L452 0L541 0L319 656L225 656ZM167 715C196 715 216 736 216 764C216 793 196 813 167 813C139 813 118 793 118 764C118 736 139 715 167 715ZM373 715C401 715 422 736 422 764C422 793 401 813 373 813C344 813 324 793 324 764C324 736 344 715 373 715Z" />
<glyph glyph-name="Aring" unicode="&#xc5;" horiz-adv-x="544" d="M203 367C227 440 248 512 268 588L272 588C293 512 314 440 338 367L369 267L172 267ZM3 0L88 0L151 200L390 200L452 0L541 0L319 656L225 656ZM270 699C325 699 367 735 367 789C367 844 325 880 270 880C214 880 173 844 173 789C173 735 214 699 270 699ZM270 735C241 735 218 754 218 789C218 823 241 843 270 843C297 843 321 823 321 789C321 754 297 735 270 735Z" />
<glyph glyph-name="AE" unicode="&#xc6;" horiz-adv-x="822" d="M290 376C326 447 362 519 397 590L401 590L401 258L229 258ZM8 0L96 0L195 191L401 191L401 0L773 0L773 71L485 71L485 309L717 309L717 380L485 380L485 586L763 586L763 656L352 656Z" />
<glyph glyph-name="Ccedilla" unicode="&#xc7;" horiz-adv-x="571" d="M256 -226C362 -221 421 -193 421 -135C421 -94 394 -75 348 -64L371 -10C440 -2 494 31 539 83L493 135C451 89 404 61 341 61C217 61 138 165 138 330C138 493 220 595 344 595C400 595 443 570 478 533L523 587C485 630 423 668 343 668C176 668 52 539 52 328C52 123 164 -1 317 -11L280 -88C337 -96 357 -110 357 -136C357 -165 332 -180 248 -186Z" />
<glyph glyph-name="Egrave" unicode="&#xc8;" horiz-adv-x="527" d="M90 0L478 0L478 71L173 71L173 309L422 309L422 380L173 380L173 586L468 586L468 656L90 656ZM301 697L338 739L196 867L149 812Z" />
<glyph glyph-name="Eacute" unicode="&#xc9;" horiz-adv-x="527" d="M90 0L478 0L478 71L173 71L173 309L422 309L422 380L173 380L173 586L468 586L468 656L90 656ZM267 697L419 812L372 867L230 739Z" />
<glyph glyph-name="Ecircumflex" unicode="&#xca;" horiz-adv-x="527" d="M90 0L478 0L478 71L173 71L173 309L422 309L422 380L173 380L173 586L468 586L468 656L90 656ZM136 725L172 699L282 792L286 792L396 699L432 725L327 838L241 838Z" />
<glyph glyph-name="Edieresis" unicode="&#xcb;" horiz-adv-x="527" d="M90 0L478 0L478 71L173 71L173 309L422 309L422 380L173 380L173 586L468 586L468 656L90 656ZM181 715C210 715 230 736 230 764C230 793 210 813 181 813C153 813 132 793 132 764C132 736 153 715 181 715ZM387 715C415 715 436 736 436 764C436 793 415 813 387 813C358 813 338 793 338 764C338 736 358 715 387 715Z" />
<glyph glyph-name="Igrave" unicode="&#xcc;" horiz-adv-x="263" d="M90 0L173 0L173 656L90 656ZM148 697L185 739L43 867L-4 812Z" />
<glyph glyph-name="Iacute" unicode="&#xcd;" horiz-adv-x="263" d="M90 0L173 0L173 656L90 656ZM114 697L266 812L219 867L77 739Z" />
<glyph glyph-name="Icircumflex" unicode="&#xce;" horiz-adv-x="263" d="M90 0L173 0L173 656L90 656ZM-17 725L19 699L129 792L133 792L243 699L279 725L174 838L88 838Z" />
<glyph glyph-name="Idieresis" unicode="&#xcf;" horiz-adv-x="263" d="M90 0L173 0L173 656L90 656ZM28 715C57 715 77 736 77 764C77 793 57 813 28 813C0 813 -21 793 -21 764C-21 736 0 715 28 715ZM234 715C262 715 283 736 283 764C283 793 262 813 234 813C205 813 185 793 185 764C185 736 205 715 234 715Z" />
<glyph glyph-name="Eth" unicode="&#xd0;" horiz-adv-x="638" d="M33 321L112 321L112 0L280 0C478 0 586 122 586 331C586 539 478 656 276 656L112 656L112 368L33 364ZM195 68L195 321L344 321L344 368L195 368L195 588L270 588C423 588 500 496 500 331C500 165 423 68 270 68Z" />
<glyph glyph-name="Ntilde" unicode="&#xd1;" horiz-adv-x="647" d="M90 0L169 0L169 343C169 412 163 482 158 548L162 548L233 413L471 0L557 0L557 656L478 656L478 317C478 248 484 174 488 108L484 108L413 244L176 656L90 656ZM402 709C462 709 500 755 504 832L448 836C443 793 425 770 400 770C353 770 327 841 252 841C192 841 154 794 150 718L206 714C210 757 229 780 254 780C301 780 327 709 402 709Z" />
<glyph glyph-name="Ograve" unicode="&#xd2;" horiz-adv-x="664" d="M332 -12C497 -12 613 120 613 331C613 540 497 668 332 668C167 668 52 541 52 331C52 120 167 -12 332 -12ZM332 61C215 61 138 167 138 331C138 494 215 595 332 595C449 595 526 494 526 331C526 167 449 61 332 61ZM349 697L386 739L244 867L197 812Z" />
<glyph glyph-name="Oacute" unicode="&#xd3;" horiz-adv-x="664" d="M332 -12C497 -12 613 120 613 331C613 540 497 668 332 668C167 668 52 541 52 331C52 120 167 -12 332 -12ZM332 61C215 61 138 167 138 331C138 494 215 595 332 595C449 595 526 494 526 331C526 167 449 61 332 61ZM315 697L467 812L420 867L278 739Z" />
<glyph glyph-name="Ocircumflex" unicode="&#xd4;" horiz-adv-x="664" d="M332 -12C497 -12 613 120 613 331C613 540 497 668 332 668C167 668 52 541 52 331C52 120 167 -12 332 -12ZM332 61C215 61 138 167 138 331C138 494 215 595 332 595C449 595 526 494 526 331C526 167 449 61 332 61ZM184 725L220 699L330 792L334 792L444 699L480 725L375 838L289 838Z" />
<glyph glyph-name="Otilde" unicode="&#xd5;" horiz-adv-x="664" d="M332 -12C497 -12 613 120 613 331C613 540 497 668 332 668C167 668 52 541 52 331C52 120 167 -12 332 -12ZM332 61C215 61 138 167 138 331C138 494 215 595 332 595C449 595 526 494 526 331C526 167 449 61 332 61ZM407 709C467 709 505 755 509 832L453 836C448 793 430 770 405 770C358 770 332 841 257 841C197 841 159 794 155 718L211 714C215 757 234 780 259 780C306 780 332 709 407 709Z" />
<glyph glyph-name="Odieresis" unicode="&#xd6;" horiz-adv-x="664" d="M332 -12C497 -12 613 120 613 331C613 540 497 668 332 668C167 668 52 541 52 331C52 120 167 -12 332 -12ZM332 61C215 61 138 167 138 331C138 494 215 595 332 595C449 595 526 494 526 331C526 167 449 61 332 61ZM229 715C258 715 278 736 278 764C278 793 258 813 229 813C201 813 180 793 180 764C180 736 201 715 229 715ZM435 715C463 715 484 736 484 764C484 793 463 813 435 813C406 813 386 793 386 764C386 736 406 715 435 715Z" />
<glyph glyph-name="multiply" unicode="&#xd7;" horiz-adv-x="497" d="M94 126L249 286L403 126L447 171L292 330L447 488L403 533L249 374L94 533L50 488L205 330L50 171Z" />
<glyph glyph-name="Oslash" unicode="&#xd8;" horiz-adv-x="664" d="M335 -12C500 -12 616 120 616 331C616 426 592 504 550 562L619 651L573 686L511 605C464 646 404 668 335 668C170 668 55 541 55 331C55 235 79 156 120 97L50 6L96 -30L160 53C206 11 266 -12 335 -12ZM141 331C141 494 218 595 335 595C386 595 429 576 462 541L174 168C153 211 141 267 141 331ZM335 61C284 61 241 81 209 117L496 491C517 449 529 395 529 331C529 167 452 61 335 61Z" />
<glyph glyph-name="Ugrave" unicode="&#xd9;" horiz-adv-x="645" d="M323 -12C457 -12 558 60 558 271L558 656L478 656L478 269C478 111 410 61 323 61C237 61 170 111 170 269L170 656L87 656L87 271C87 60 189 -12 323 -12ZM340 697L377 739L235 867L188 812Z" />
<glyph glyph-name="Uacute" unicode="&#xda;" horiz-adv-x="645" d="M323 -12C457 -12 558 60 558 271L558 656L478 656L478 269C478 111 410 61 323 61C237 61 170 111 170 269L170 656L87 656L87 271C87 60 189 -12 323 -12ZM306 697L458 812L411 867L269 739Z" />
<glyph glyph-name="Ucircumflex" unicode="&#xdb;" horiz-adv-x="645" d="M323 -12C457 -12 558 60 558 271L558 656L478 656L478 269C478 111 410 61 323 61C237 61 170 111 170 269L170 656L87 656L87 271C87 60 189 -12 323 -12ZM175 725L211 699L321 792L325 792L435 699L471 725L366 838L280 838Z" />
<glyph glyph-name="Udieresis" unicode="&#xdc;" horiz-adv-x="645" d="M323 -12C457 -12 558 60 558 271L558 656L478 656L478 269C478 111 410 61 323 61C237 61 170 111 170 269L170 656L87 656L87 271C87 60 189 -12 323 -12ZM220 715C249 715 269 736 269 764C269 793 249 813 220 813C192 813 171 793 171 764C171 736 192 715 220 715ZM426 715C454 715 475 736 475 764C475 793 454 813 426 813C397 813 377 793 377 764C377 736 397 715 426 715Z" />
<glyph glyph-name="Yacute" unicode="&#xdd;" horiz-adv-x="476" d="M196 0L280 0L280 254L477 656L390 656L306 471C286 423 263 377 240 328L236 328C214 377 194 423 173 471L88 656L-1 656L196 254ZM221 697L373 812L326 867L184 739Z" />
<glyph glyph-name="Thorn" unicode="&#xde;" horiz-adv-x="583" d="M90 0L173 0L173 150L291 150C435 150 533 214 533 353C533 496 436 546 291 546L173 546L173 656L90 656ZM173 218L173 478L281 478C394 478 450 447 450 353C450 259 395 218 281 218Z" />
<glyph glyph-name="germandbls" unicode="&#xdf;" horiz-adv-x="576" d="M387 -12C486 -12 547 53 547 137C547 299 350 277 350 374C350 443 441 476 441 576C441 655 383 722 278 722C153 722 82 640 82 515L82 0L164 0L164 500C164 603 206 655 277 655C332 655 360 618 360 568C360 484 272 454 272 364C272 225 469 248 469 132C469 90 440 52 385 52C347 52 314 66 279 95L246 37C287 7 332 -12 387 -12Z" />
<glyph glyph-name="agrave" unicode="&#xe0;" horiz-adv-x="504" d="M194 -12C255 -12 309 20 355 58L358 58L365 0L433 0L433 298C433 419 383 498 264 498C186 498 118 464 73 435L105 378C143 404 194 430 250 430C330 430 350 370 350 308C143 285 52 232 52 126C52 39 113 -12 194 -12ZM218 54C170 54 132 77 132 132C132 194 188 234 350 254L350 119C303 77 265 54 218 54ZM277 573L319 614L178 781L120 726Z" />
<glyph glyph-name="aacute" unicode="&#xe1;" horiz-adv-x="504" d="M194 -12C255 -12 309 20 355 58L358 58L365 0L433 0L433 298C433 419 383 498 264 498C186 498 118 464 73 435L105 378C143 404 194 430 250 430C330 430 350 370 350 308C143 285 52 232 52 126C52 39 113 -12 194 -12ZM218 54C170 54 132 77 132 132C132 194 188 234 350 254L350 119C303 77 265 54 218 54ZM249 573L406 726L348 781L207 614Z" />
<glyph glyph-name="acircumflex" unicode="&#xe2;" horiz-adv-x="504" d="M194 -12C255 -12 309 20 355 58L358 58L365 0L433 0L433 298C433 419 383 498 264 498C186 498 118 464 73 435L105 378C143 404 194 430 250 430C330 430 350 370 350 308C143 285 52 232 52 126C52 39 113 -12 194 -12ZM218 54C170 54 132 77 132 132C132 194 188 234 350 254L350 119C303 77 265 54 218 54ZM108 600L143 568L261 681L265 681L383 568L418 600L304 740L222 740Z" />
<glyph glyph-name="atilde" unicode="&#xe3;" horiz-adv-x="504" d="M194 -12C255 -12 309 20 355 58L358 58L365 0L433 0L433 298C433 419 383 498 264 498C186 498 118 464 73 435L105 378C143 404 194 430 250 430C330 430 350 370 350 308C143 285 52 232 52 126C52 39 113 -12 194 -12ZM218 54C170 54 132 77 132 132C132 194 188 234 350 254L350 119C303 77 265 54 218 54ZM335 577C404 577 433 635 436 712L381 716C378 670 364 637 335 637C288 637 262 721 191 721C122 721 93 663 90 585L145 582C148 629 162 661 192 661C238 661 264 577 335 577Z" />
<glyph glyph-name="adieresis" unicode="&#xe4;" horiz-adv-x="504" d="M194 -12C255 -12 309 20 355 58L358 58L365 0L433 0L433 298C433 419 383 498 264 498C186 498 118 464 73 435L105 378C143 404 194 430 250 430C330 430 350 370 350 308C143 285 52 232 52 126C52 39 113 -12 194 -12ZM218 54C170 54 132 77 132 132C132 194 188 234 350 254L350 119C303 77 265 54 218 54ZM167 587C195 587 216 609 216 637C216 665 195 687 167 687C138 687 117 665 117 637C117 609 138 587 167 587ZM359 587C388 587 409 609 409 637C409 665 388 687 359 687C331 687 310 665 310 637C310 609 331 587 359 587Z" />
<glyph glyph-name="aring" unicode="&#xe5;" horiz-adv-x="504" d="M194 -12C255 -12 309 20 355 58L358 58L365 0L433 0L433 298C433 419 383 498 264 498C186 498 118 464 73 435L105 378C143 404 194 430 250 430C330 430 350 370 350 308C143 285 52 232 52 126C52 39 113 -12 194 -12ZM218 54C170 54 132 77 132 132C132 194 188 234 350 254L350 119C303 77 265 54 218 54ZM263 554C330 554 373 596 373 653C373 709 330 751 263 751C196 751 153 709 153 653C153 596 196 554 263 554ZM263 591C231 591 206 615 206 653C206 690 231 714 263 714C295 714 320 690 320 653C320 615 295 591 263 591Z" />
<glyph glyph-name="ae" unicode="&#xe6;" horiz-adv-x="785" d="M201 -12C263 -12 333 20 399 79C436 31 489 -12 570 -12C636 -12 686 11 728 38L698 95C662 72 627 55 580 55C497 55 433 122 429 223L744 223C746 235 747 251 747 269C747 408 681 498 562 498C496 498 440 458 402 395C382 458 335 498 263 498C191 498 124 464 79 435L112 378C150 404 200 430 253 430C333 430 352 370 352 308C150 285 58 232 58 126C58 39 119 -12 201 -12ZM224 54C176 54 139 77 139 132C139 194 198 234 352 254L352 229C353 192 360 154 371 129C327 81 269 54 224 54ZM429 278C438 373 493 433 560 433C634 433 675 378 675 278Z" />
<glyph glyph-name="ccedilla" unicode="&#xe7;" horiz-adv-x="456" d="M185 -226C291 -221 350 -193 350 -135C350 -94 323 -75 277 -64L300 -10C348 -5 394 17 431 50L395 105C365 78 326 56 281 56C192 56 131 131 131 242C131 354 195 430 283 430C322 430 352 412 380 387L422 441C388 472 344 498 280 498C155 498 46 405 46 242C46 93 131 2 246 -11L209 -88C266 -96 286 -110 286 -136C286 -165 261 -180 177 -186Z" />
<glyph glyph-name="egrave" unicode="&#xe8;" horiz-adv-x="496" d="M279 -12C345 -12 397 11 439 38L410 92C374 69 335 54 289 54C196 54 133 120 127 223L455 223C457 235 458 253 458 270C458 409 388 498 264 498C153 498 46 401 46 242C46 83 149 -12 279 -12ZM126 282C136 378 198 433 266 433C342 433 386 380 386 282ZM278 573L320 614L179 781L121 726Z" />
<glyph glyph-name="eacute" unicode="&#xe9;" horiz-adv-x="496" d="M279 -12C345 -12 397 11 439 38L410 92C374 69 335 54 289 54C196 54 133 120 127 223L455 223C457 235 458 253 458 270C458 409 388 498 264 498C153 498 46 401 46 242C46 83 149 -12 279 -12ZM126 282C136 378 198 433 266 433C342 433 386 380 386 282ZM250 573L407 726L349 781L208 614Z" />
<glyph glyph-name="ecircumflex" unicode="&#xea;" horiz-adv-x="496" d="M279 -12C345 -12 397 11 439 38L410 92C374 69 335 54 289 54C196 54 133 120 127 223L455 223C457 235 458 253 458 270C458 409 388 498 264 498C153 498 46 401 46 242C46 83 149 -12 279 -12ZM126 282C136 378 198 433 266 433C342 433 386 380 386 282ZM109 600L144 568L262 681L266 681L384 568L419 600L305 740L223 740Z" />
<glyph glyph-name="edieresis" unicode="&#xeb;" horiz-adv-x="496" d="M279 -12C345 -12 397 11 439 38L410 92C374 69 335 54 289 54C196 54 133 120 127 223L455 223C457 235 458 253 458 270C458 409 388 498 264 498C153 498 46 401 46 242C46 83 149 -12 279 -12ZM126 282C136 378 198 433 266 433C342 433 386 380 386 282ZM168 587C196 587 217 609 217 637C217 665 196 687 168 687C139 687 118 665 118 637C118 609 139 587 168 587ZM360 587C389 587 410 609 410 637C410 665 389 687 360 687C332 687 311 665 311 637C311 609 332 587 360 587Z" />
<glyph glyph-name="igrave" unicode="&#xec;" horiz-adv-x="246" d="M82 0L164 0L164 486L82 486ZM137 573L179 614L38 781L-20 726Z" />
<glyph glyph-name="iacute" unicode="&#xed;" horiz-adv-x="246" d="M82 0L164 0L164 486L82 486ZM109 573L266 726L208 781L67 614Z" />
<glyph glyph-name="icircumflex" unicode="&#xee;" horiz-adv-x="246" d="M82 0L164 0L164 486L82 486ZM-32 600L3 568L121 681L125 681L243 568L278 600L164 740L82 740Z" />
<glyph glyph-name="idieresis" unicode="&#xef;" horiz-adv-x="246" d="M82 0L164 0L164 486L82 486ZM27 587C55 587 76 609 76 637C76 665 55 687 27 687C-2 687 -23 665 -23 637C-23 609 -2 587 27 587ZM219 587C248 587 269 609 269 637C269 665 248 687 219 687C191 687 170 665 170 637C170 609 191 587 219 587Z" />
<glyph glyph-name="eth" unicode="&#xf0;" horiz-adv-x="545" d="M269 -12C399 -12 485 97 485 257C485 415 429 524 349 605L478 671L454 712L312 639C269 675 222 704 174 730L136 678C177 656 214 632 248 606L121 541L145 500L286 573C337 523 375 463 393 381C359 426 310 447 259 447C143 447 53 358 53 222C53 77 156 -12 269 -12ZM271 56C195 56 131 122 131 222C131 314 182 383 271 383C316 383 360 368 404 309C405 292 406 273 406 254C406 137 361 56 271 56Z" />
<glyph glyph-name="ntilde" unicode="&#xf1;" horiz-adv-x="547" d="M82 0L164 0L164 352C213 401 247 427 297 427C361 427 389 388 389 297L389 0L471 0L471 308C471 432 425 498 323 498C256 498 206 462 160 416L157 416L150 486L82 486ZM364 577C433 577 462 635 465 712L410 716C407 670 393 637 364 637C317 637 291 721 220 721C151 721 122 663 119 585L174 582C177 629 191 661 221 661C267 661 293 577 364 577Z" />
<glyph glyph-name="ograve" unicode="&#xf2;" horiz-adv-x="542" d="M271 -12C390 -12 496 81 496 242C496 405 390 498 271 498C152 498 46 405 46 242C46 81 152 -12 271 -12ZM271 56C188 56 131 131 131 242C131 354 188 430 271 430C355 430 411 354 411 242C411 131 355 56 271 56ZM285 573L327 614L186 781L128 726Z" />
<glyph glyph-name="oacute" unicode="&#xf3;" horiz-adv-x="542" d="M271 -12C390 -12 496 81 496 242C496 405 390 498 271 498C152 498 46 405 46 242C46 81 152 -12 271 -12ZM271 56C188 56 131 131 131 242C131 354 188 430 271 430C355 430 411 354 411 242C411 131 355 56 271 56ZM257 573L414 726L356 781L215 614Z" />
<glyph glyph-name="ocircumflex" unicode="&#xf4;" horiz-adv-x="542" d="M271 -12C390 -12 496 81 496 242C496 405 390 498 271 498C152 498 46 405 46 242C46 81 152 -12 271 -12ZM271 56C188 56 131 131 131 242C131 354 188 430 271 430C355 430 411 354 411 242C411 131 355 56 271 56ZM116 600L151 568L269 681L273 681L391 568L426 600L312 740L230 740Z" />
<glyph glyph-name="otilde" unicode="&#xf5;" horiz-adv-x="542" d="M271 -12C390 -12 496 81 496 242C496 405 390 498 271 498C152 498 46 405 46 242C46 81 152 -12 271 -12ZM271 56C188 56 131 131 131 242C131 354 188 430 271 430C355 430 411 354 411 242C411 131 355 56 271 56ZM343 577C412 577 441 635 444 712L389 716C386 670 372 637 343 637C296 637 270 721 199 721C130 721 101 663 98 585L153 582C156 629 170 661 200 661C246 661 272 577 343 577Z" />
<glyph glyph-name="odieresis" unicode="&#xf6;" horiz-adv-x="542" d="M271 -12C390 -12 496 81 496 242C496 405 390 498 271 498C152 498 46 405 46 242C46 81 152 -12 271 -12ZM271 56C188 56 131 131 131 242C131 354 188 430 271 430C355 430 411 354 411 242C411 131 355 56 271 56ZM175 587C203 587 224 609 224 637C224 665 203 687 175 687C146 687 125 665 125 637C125 609 146 587 175 587ZM367 587C396 587 417 609 417 637C417 665 396 687 367 687C339 687 318 665 318 637C318 609 339 587 367 587Z" />
<glyph glyph-name="divide" unicode="&#xf7;" horiz-adv-x="497" d="M34 299L463 299L463 361L34 361ZM249 96C279 96 303 118 303 150C303 181 279 203 249 203C218 203 194 181 194 150C194 118 218 96 249 96ZM249 456C279 456 303 478 303 510C303 541 279 563 249 563C218 563 194 541 194 510C194 478 218 456 249 456Z" />
<glyph glyph-name="oslash" unicode="&#xf8;" horiz-adv-x="542" d="M271 -12C390 -12 496 81 496 242C496 314 475 372 442 415L496 480L460 509L410 448C371 481 322 498 271 498C152 498 46 405 46 242C46 171 67 114 100 71L46 6L83 -23L132 37C171 5 220 -12 271 -12ZM127 246C127 356 188 432 271 432C308 432 340 418 364 392L150 133C135 163 127 201 127 246ZM271 54C235 54 203 68 178 93L391 353C407 322 415 284 415 239C415 129 355 54 271 54Z" />
<glyph glyph-name="ugrave" unicode="&#xf9;" horiz-adv-x="544" d="M224 -12C291 -12 339 23 384 76L387 76L394 0L462 0L462 486L380 486L380 141C334 84 299 59 249 59C185 59 158 98 158 189L158 486L75 486L75 178C75 54 121 -12 224 -12ZM286 573L328 614L187 781L129 726Z" />
<glyph glyph-name="uacute" unicode="&#xfa;" horiz-adv-x="544" d="M224 -12C291 -12 339 23 384 76L387 76L394 0L462 0L462 486L380 486L380 141C334 84 299 59 249 59C185 59 158 98 158 189L158 486L75 486L75 178C75 54 121 -12 224 -12ZM258 573L415 726L357 781L216 614Z" />
<glyph glyph-name="ucircumflex" unicode="&#xfb;" horiz-adv-x="544" d="M224 -12C291 -12 339 23 384 76L387 76L394 0L462 0L462 486L380 486L380 141C334 84 299 59 249 59C185 59 158 98 158 189L158 486L75 486L75 178C75 54 121 -12 224 -12ZM117 600L152 568L270 681L274 681L392 568L427 600L313 740L231 740Z" />
<glyph glyph-name="udieresis" unicode="&#xfc;" horiz-adv-x="544" d="M224 -12C291 -12 339 23 384 76L387 76L394 0L462 0L462 486L380 486L380 141C334 84 299 59 249 59C185 59 158 98 158 189L158 486L75 486L75 178C75 54 121 -12 224 -12ZM176 587C204 587 225 609 225 637C225 665 204 687 176 687C147 687 126 665 126 637C126 609 147 587 176 587ZM368 587C397 587 418 609 418 637C418 665 397 687 368 687C340 687 319 665 319 637C319 609 340 587 368 587Z" />
<glyph glyph-name="yacute" unicode="&#xfd;" horiz-adv-x="467" d="M90 -209C188 -209 238 -136 272 -40L455 486L375 486L288 217C275 174 261 124 247 80L243 80C228 125 211 175 196 217L97 486L12 486L207 -1L196 -37C176 -97 141 -141 86 -141C74 -141 59 -137 49 -134L33 -199C49 -205 68 -209 90 -209ZM229 573L386 726L328 781L187 614Z" />
<glyph glyph-name="thorn" unicode="&#xfe;" horiz-adv-x="555" d="M82 -205L164 -205L164 -41L163 42C207 8 250 -12 297 -12C408 -12 507 85 507 250C507 401 439 498 311 498C258 498 206 469 163 435L164 518L164 712L82 712ZM283 57C251 57 208 71 164 108L164 363C212 406 253 429 294 429C386 429 422 357 422 250C422 130 363 57 283 57Z" />
<glyph glyph-name="ydieresis" unicode="&#xff;" horiz-adv-x="467" d="M90 -209C188 -209 238 -136 272 -40L455 486L375 486L288 217C275 174 261 124 247 80L243 80C228 125 211 175 196 217L97 486L12 486L207 -1L196 -37C176 -97 141 -141 86 -141C74 -141 59 -137 49 -134L33 -199C49 -205 68 -209 90 -209ZM147 587C175 587 196 609 196 637C196 665 175 687 147 687C118 687 97 665 97 637C97 609 118 587 147 587ZM339 587C368 587 389 609 389 637C389 665 368 687 339 687C311 687 290 665 290 637C290 609 311 587 339 587Z" />
<glyph glyph-name="Amacron" unicode="&#x0100;" horiz-adv-x="544" d="M203 367C227 440 248 512 268 588L272 588C293 512 314 440 338 367L369 267L172 267ZM3 0L88 0L151 200L390 200L452 0L541 0L319 656L225 656ZM136 735L404 735L404 792L136 792Z" />
<glyph glyph-name="amacron" unicode="&#x0101;" horiz-adv-x="504" d="M194 -12C255 -12 309 20 355 58L358 58L365 0L433 0L433 298C433 419 383 498 264 498C186 498 118 464 73 435L105 378C143 404 194 430 250 430C330 430 350 370 350 308C143 285 52 232 52 126C52 39 113 -12 194 -12ZM218 54C170 54 132 77 132 132C132 194 188 234 350 254L350 119C303 77 265 54 218 54ZM130 601L396 601L396 658L130 658Z" />
<glyph glyph-name="Abreve" unicode="&#x0102;" horiz-adv-x="544" d="M203 367C227 440 248 512 268 588L272 588C293 512 314 440 338 367L369 267L172 267ZM3 0L88 0L151 200L390 200L452 0L541 0L319 656L225 656ZM270 705C363 705 408 764 416 834L366 842C358 795 327 758 270 758C213 758 182 795 174 842L124 834C132 764 177 705 270 705Z" />
<glyph glyph-name="abreve" unicode="&#x0103;" horiz-adv-x="504" d="M194 -12C255 -12 309 20 355 58L358 58L365 0L433 0L433 298C433 419 383 498 264 498C186 498 118 464 73 435L105 378C143 404 194 430 250 430C330 430 350 370 350 308C143 285 52 232 52 126C52 39 113 -12 194 -12ZM218 54C170 54 132 77 132 132C132 194 188 234 350 254L350 119C303 77 265 54 218 54ZM263 571C370 571 414 648 419 722L368 730C360 679 328 626 263 626C198 626 166 679 158 730L107 722C112 648 156 571 263 571Z" />
<glyph glyph-name="Aogonek" unicode="&#x0104;" horiz-adv-x="544" d="M492 -212C518 -212 552 -199 572 -184L549 -139C537 -148 524 -153 507 -153C483 -153 461 -138 461 -107C461 -65 494 -19 541 0L319 656L225 656L3 0L88 0L151 200L390 200L452 0L471 0C437 -23 396 -71 396 -125C396 -182 439 -212 492 -212ZM203 367C227 440 248 512 268 588L272 588C293 512 314 440 338 367L369 267L172 267Z" />
<glyph glyph-name="aogonek" unicode="&#x0105;" horiz-adv-x="504" d="M376 -206C401 -206 435 -194 454 -179L433 -138C421 -146 408 -151 392 -151C368 -151 346 -136 346 -105C346 -66 377 -22 433 0L433 298C433 419 383 498 264 498C186 498 118 464 73 435L105 378C143 404 194 430 250 430C330 430 350 370 350 308C143 285 52 232 52 126C52 39 113 -12 194 -12C255 -12 309 20 355 58L358 58L365 4C327 -21 285 -67 285 -121C285 -177 325 -206 376 -206ZM218 54C170 54 132 77 132 132C132 194 188 234 350 254L350 119C303 77 265 54 218 54Z" />
<glyph glyph-name="Cacute" unicode="&#x0106;" horiz-adv-x="571" d="M338 -12C423 -12 487 23 539 83L493 135C451 89 404 61 341 61C217 61 138 165 138 330C138 493 220 595 344 595C400 595 443 570 478 533L523 587C485 630 423 668 343 668C176 668 52 539 52 328C52 114 174 -12 338 -12ZM313 697L465 812L418 867L276 739Z" />
<glyph glyph-name="cacute" unicode="&#x0107;" horiz-adv-x="456" d="M274 -12C332 -12 387 11 431 50L395 105C365 78 326 56 281 56C192 56 131 131 131 242C131 354 195 430 283 430C322 430 352 412 380 387L422 441C388 472 344 498 280 498C155 498 46 405 46 242C46 81 145 -12 274 -12ZM265 573L422 726L364 781L223 614Z" />
<glyph glyph-name="Ccircumflex" unicode="&#x0108;" horiz-adv-x="571" d="M338 -12C423 -12 487 23 539 83L493 135C451 89 404 61 341 61C217 61 138 165 138 330C138 493 220 595 344 595C400 595 443 570 478 533L523 587C485 630 423 668 343 668C176 668 52 539 52 328C52 114 174 -12 338 -12ZM182 725L218 699L328 792L332 792L442 699L478 725L373 838L287 838Z" />
<glyph glyph-name="ccircumflex" unicode="&#x0109;" horiz-adv-x="456" d="M274 -12C332 -12 387 11 431 50L395 105C365 78 326 56 281 56C192 56 131 131 131 242C131 354 195 430 283 430C322 430 352 412 380 387L422 441C388 472 344 498 280 498C155 498 46 405 46 242C46 81 145 -12 274 -12ZM124 600L159 568L277 681L281 681L399 568L434 600L320 740L238 740Z" />
<glyph glyph-name="Cdotaccent" unicode="&#x010a;" horiz-adv-x="571" d="M338 -12C423 -12 487 23 539 83L493 135C451 89 404 61 341 61C217 61 138 165 138 330C138 493 220 595 344 595C400 595 443 570 478 533L523 587C485 630 423 668 343 668C176 668 52 539 52 328C52 114 174 -12 338 -12ZM330 714C362 714 387 736 387 768C387 799 362 821 330 821C298 821 273 799 273 768C273 736 298 714 330 714Z" />
<glyph glyph-name="cdotaccent" unicode="&#x010b;" horiz-adv-x="456" d="M274 -12C332 -12 387 11 431 50L395 105C365 78 326 56 281 56C192 56 131 131 131 242C131 354 195 430 283 430C322 430 352 412 380 387L422 441C388 472 344 498 280 498C155 498 46 405 46 242C46 81 145 -12 274 -12ZM279 586C310 586 333 608 333 640C333 671 310 694 279 694C248 694 225 671 225 640C225 608 248 586 279 586Z" />
<glyph glyph-name="Ccaron" unicode="&#x010c;" horiz-adv-x="571" d="M338 -12C423 -12 487 23 539 83L493 135C451 89 404 61 341 61C217 61 138 165 138 330C138 493 220 595 344 595C400 595 443 570 478 533L523 587C485 630 423 668 343 668C176 668 52 539 52 328C52 114 174 -12 338 -12ZM287 706L373 706L478 819L442 845L332 753L328 753L218 845L182 819Z" />
<glyph glyph-name="ccaron" unicode="&#x010d;" horiz-adv-x="456" d="M274 -12C332 -12 387 11 431 50L395 105C365 78 326 56 281 56C192 56 131 131 131 242C131 354 195 430 283 430C322 430 352 412 380 387L422 441C388 472 344 498 280 498C155 498 46 405 46 242C46 81 145 -12 274 -12ZM238 574L320 574L434 714L399 746L281 633L277 633L159 746L124 714Z" />
<glyph glyph-name="Dcaron" unicode="&#x010e;" horiz-adv-x="615" d="M90 0L258 0C456 0 564 122 564 331C564 539 456 656 254 656L90 656ZM173 68L173 588L248 588C401 588 478 496 478 331C478 165 401 68 248 68ZM265 706L351 706L456 819L420 845L310 753L306 753L196 845L160 819Z" />
<glyph glyph-name="dcaron" unicode="&#x010f;" horiz-adv-x="573" d="M248 -12C305 -12 357 20 395 57L398 57L405 0L473 0L473 712L390 712L390 525L394 442C351 477 314 498 258 498C147 498 47 400 47 242C47 80 126 -12 248 -12ZM266 57C181 57 132 127 132 243C132 354 194 429 272 429C312 429 349 415 390 378L390 124C350 79 311 57 266 57ZM530 548L570 548L584 703L585 760L526 760Z" />
<glyph glyph-name="Dcroat" unicode="&#x0110;" horiz-adv-x="638" d="M33 321L112 321L112 0L280 0C478 0 586 122 586 331C586 539 478 656 276 656L112 656L112 368L33 364ZM195 68L195 321L344 321L344 368L195 368L195 588L270 588C423 588 500 496 500 331C500 165 423 68 270 68Z" />
<glyph glyph-name="dcroat" unicode="&#x0111;" horiz-adv-x="555" d="M248 -12C306 -12 357 18 394 55L397 55L403 0L473 0L473 571L545 576L545 619L473 619L473 712L390 712L390 619L229 619L229 571L390 571L390 486L394 402C351 437 314 459 258 459C147 459 47 366 47 223C47 75 126 -12 248 -12ZM266 57C181 57 132 122 132 224C132 320 194 390 272 390C312 390 349 376 390 339L390 124C350 79 311 57 266 57Z" />
<glyph glyph-name="Emacron" unicode="&#x0112;" horiz-adv-x="527" d="M90 0L478 0L478 71L173 71L173 309L422 309L422 380L173 380L173 586L468 586L468 656L90 656ZM150 735L418 735L418 792L150 792Z" />
<glyph glyph-name="emacron" unicode="&#x0113;" horiz-adv-x="496" d="M279 -12C345 -12 397 11 439 38L410 92C374 69 335 54 289 54C196 54 133 120 127 223L455 223C457 235 458 253 458 270C458 409 388 498 264 498C153 498 46 401 46 242C46 83 149 -12 279 -12ZM126 282C136 378 198 433 266 433C342 433 386 380 386 282ZM131 601L397 601L397 658L131 658Z" />
<glyph glyph-name="Ebreve" unicode="&#x0114;" horiz-adv-x="527" d="M90 0L478 0L478 71L173 71L173 309L422 309L422 380L173 380L173 586L468 586L468 656L90 656ZM284 705C377 705 422 764 430 834L380 842C372 795 341 758 284 758C227 758 196 795 188 842L138 834C146 764 191 705 284 705Z" />
<glyph glyph-name="ebreve" unicode="&#x0115;" horiz-adv-x="496" d="M279 -12C345 -12 397 11 439 38L410 92C374 69 335 54 289 54C196 54 133 120 127 223L455 223C457 235 458 253 458 270C458 409 388 498 264 498C153 498 46 401 46 242C46 83 149 -12 279 -12ZM126 282C136 378 198 433 266 433C342 433 386 380 386 282ZM264 571C371 571 415 648 420 722L369 730C361 679 329 626 264 626C199 626 167 679 159 730L108 722C113 648 157 571 264 571Z" />
<glyph glyph-name="Edotaccent" unicode="&#x0116;" horiz-adv-x="527" d="M90 0L478 0L478 71L173 71L173 309L422 309L422 380L173 380L173 586L468 586L468 656L90 656ZM284 714C316 714 341 736 341 768C341 799 316 821 284 821C252 821 227 799 227 768C227 736 252 714 284 714Z" />
<glyph glyph-name="edotaccent" unicode="&#x0117;" horiz-adv-x="496" d="M279 -12C345 -12 397 11 439 38L410 92C374 69 335 54 289 54C196 54 133 120 127 223L455 223C457 235 458 253 458 270C458 409 388 498 264 498C153 498 46 401 46 242C46 83 149 -12 279 -12ZM126 282C136 378 198 433 266 433C342 433 386 380 386 282ZM264 586C295 586 318 608 318 640C318 671 295 694 264 694C233 694 210 671 210 640C210 608 233 586 264 586Z" />
<glyph glyph-name="Eogonek" unicode="&#x0118;" horiz-adv-x="527" d="M414 -212C440 -212 475 -199 494 -184L471 -139C459 -148 446 -153 431 -153C407 -153 383 -138 383 -107C383 -54 429 -6 475 0L478 0L478 71L173 71L173 309L422 309L422 380L173 380L173 586L468 586L468 656L90 656L90 0L393 0C356 -24 318 -70 318 -125C318 -182 361 -212 414 -212Z" />
<glyph glyph-name="eogonek" unicode="&#x0119;" horiz-adv-x="496" d="M358 -206C383 -206 417 -194 436 -179L415 -138C403 -146 391 -151 375 -151C350 -151 328 -136 328 -105C328 -63 352 -24 439 38L410 92C374 69 335 54 289 54C196 54 133 120 127 223L455 223C457 235 458 253 458 270C458 409 388 498 264 498C153 498 46 401 46 242C46 83 149 -12 279 -12C295 -12 311 -11 328 -5C302 -28 268 -71 268 -121C268 -177 307 -206 358 -206ZM126 282C136 378 198 433 266 433C342 433 386 380 386 282Z" />
<glyph glyph-name="Ecaron" unicode="&#x011a;" horiz-adv-x="527" d="M90 0L478 0L478 71L173 71L173 309L422 309L422 380L173 380L173 586L468 586L468 656L90 656ZM241 706L327 706L432 819L396 845L286 753L282 753L172 845L136 819Z" />
<glyph glyph-name="ecaron" unicode="&#x011b;" horiz-adv-x="496" d="M279 -12C345 -12 397 11 439 38L410 92C374 69 335 54 289 54C196 54 133 120 127 223L455 223C457 235 458 253 458 270C458 409 388 498 264 498C153 498 46 401 46 242C46 83 149 -12 279 -12ZM126 282C136 378 198 433 266 433C342 433 386 380 386 282ZM223 574L305 574L419 714L384 746L266 633L262 633L144 746L109 714Z" />
<glyph glyph-name="Gcircumflex" unicode="&#x011c;" horiz-adv-x="617" d="M348 -12C436 -12 508 20 550 64L550 340L335 340L335 271L474 271L474 100C448 76 403 61 356 61C216 61 138 165 138 330C138 493 223 595 355 595C421 595 463 567 496 533L542 587C504 627 444 668 353 668C179 668 52 539 52 328C52 114 175 -12 348 -12ZM206 725L242 699L352 792L356 792L466 699L502 725L397 838L311 838Z" />
<glyph glyph-name="gcircumflex" unicode="&#x011d;" horiz-adv-x="504" d="M246 -224C397 -224 492 -146 492 -56C492 25 435 60 322 60L228 60C162 60 142 82 142 113C142 140 156 156 173 171C195 160 222 154 246 154C345 154 424 219 424 323C424 364 407 401 384 423L484 423L484 486L315 486C297 493 273 498 246 498C147 498 63 431 63 325C63 267 94 220 126 194L126 190C101 173 73 141 73 100C73 62 92 36 116 21L116 17C72 -13 45 -52 45 -93C45 -177 127 -224 246 -224ZM246 209C190 209 143 254 143 325C143 396 189 438 246 438C303 438 349 396 349 325C349 254 302 209 246 209ZM258 -167C170 -167 117 -134 117 -82C117 -54 132 -25 167 0C188 -6 211 -8 230 -8L314 -8C377 -8 412 -23 412 -68C412 -119 351 -167 258 -167ZM113 600L148 568L266 681L270 681L388 568L423 600L309 740L227 740Z" />
<glyph glyph-name="Gbreve" unicode="&#x011e;" horiz-adv-x="617" d="M348 -12C436 -12 508 20 550 64L550 340L335 340L335 271L474 271L474 100C448 76 403 61 356 61C216 61 138 165 138 330C138 493 223 595 355 595C421 595 463 567 496 533L542 587C504 627 444 668 353 668C179 668 52 539 52 328C52 114 175 -12 348 -12ZM354 705C447 705 492 764 500 834L450 842C442 795 411 758 354 758C297 758 266 795 258 842L208 834C216 764 261 705 354 705Z" />
<glyph glyph-name="gbreve" unicode="&#x011f;" horiz-adv-x="504" d="M246 -224C397 -224 492 -146 492 -56C492 25 435 60 322 60L228 60C162 60 142 82 142 113C142 140 156 156 173 171C195 160 222 154 246 154C345 154 424 219 424 323C424 364 407 401 384 423L484 423L484 486L315 486C297 493 273 498 246 498C147 498 63 431 63 325C63 267 94 220 126 194L126 190C101 173 73 141 73 100C73 62 92 36 116 21L116 17C72 -13 45 -52 45 -93C45 -177 127 -224 246 -224ZM246 209C190 209 143 254 143 325C143 396 189 438 246 438C303 438 349 396 349 325C349 254 302 209 246 209ZM258 -167C170 -167 117 -134 117 -82C117 -54 132 -25 167 0C188 -6 211 -8 230 -8L314 -8C377 -8 412 -23 412 -68C412 -119 351 -167 258 -167ZM268 571C375 571 419 648 424 722L373 730C365 679 333 626 268 626C203 626 171 679 163 730L112 722C117 648 161 571 268 571Z" />
<glyph glyph-name="Gdotaccent" unicode="&#x0120;" horiz-adv-x="617" d="M348 -12C436 -12 508 20 550 64L550 340L335 340L335 271L474 271L474 100C448 76 403 61 356 61C216 61 138 165 138 330C138 493 223 595 355 595C421 595 463 567 496 533L542 587C504 627 444 668 353 668C179 668 52 539 52 328C52 114 175 -12 348 -12ZM354 714C386 714 411 736 411 768C411 799 386 821 354 821C322 821 297 799 297 768C297 736 322 714 354 714Z" />
<glyph glyph-name="gdotaccent" unicode="&#x0121;" horiz-adv-x="504" d="M246 -224C397 -224 492 -146 492 -56C492 25 435 60 322 60L228 60C162 60 142 82 142 113C142 140 156 156 173 171C195 160 222 154 246 154C345 154 424 219 424 323C424 364 407 401 384 423L484 423L484 486L315 486C297 493 273 498 246 498C147 498 63 431 63 325C63 267 94 220 126 194L126 190C101 173 73 141 73 100C73 62 92 36 116 21L116 17C72 -13 45 -52 45 -93C45 -177 127 -224 246 -224ZM246 209C190 209 143 254 143 325C143 396 189 438 246 438C303 438 349 396 349 325C349 254 302 209 246 209ZM258 -167C170 -167 117 -134 117 -82C117 -54 132 -25 167 0C188 -6 211 -8 230 -8L314 -8C377 -8 412 -23 412 -68C412 -119 351 -167 258 -167ZM268 586C299 586 322 608 322 640C322 671 299 694 268 694C237 694 214 671 214 640C214 608 237 586 268 586Z" />
<glyph glyph-name="uni0122" unicode="&#x0122;" horiz-adv-x="617" d="M348 -12C436 -12 508 20 550 64L550 340L335 340L335 271L474 271L474 100C448 76 403 61 356 61C216 61 138 165 138 330C138 493 223 595 355 595C421 595 463 567 496 533L542 587C504 627 444 668 353 668C179 668 52 539 52 328C52 114 175 -12 348 -12ZM261 -226C367 -221 426 -193 426 -135C426 -90 396 -68 309 -58L291 -96C337 -100 362 -112 362 -138C362 -165 337 -180 253 -186Z" />
<glyph glyph-name="uni0123" unicode="&#x0123;" horiz-adv-x="504" d="M246 -224C397 -224 492 -146 492 -56C492 25 435 60 322 60L228 60C162 60 142 82 142 113C142 140 156 156 173 171C195 160 222 154 246 154C345 154 424 219 424 323C424 364 407 401 384 423L484 423L484 486L315 486C297 493 273 498 246 498C147 498 63 431 63 325C63 267 94 220 126 194L126 190C101 173 73 141 73 100C73 62 92 36 116 21L116 17C72 -13 45 -52 45 -93C45 -177 127 -224 246 -224ZM246 209C190 209 143 254 143 325C143 396 189 438 246 438C303 438 349 396 349 325C349 254 302 209 246 209ZM258 -167C170 -167 117 -134 117 -82C117 -54 132 -25 167 0C188 -6 211 -8 230 -8L314 -8C377 -8 412 -23 412 -68C412 -119 351 -167 258 -167ZM307 575L325 613C279 617 254 629 254 655C254 683 279 698 363 703L355 744C249 738 190 710 190 652C190 607 220 585 307 575Z" />
<glyph glyph-name="Hcircumflex" unicode="&#x0124;" horiz-adv-x="652" d="M90 0L173 0L173 309L478 309L478 0L562 0L562 656L478 656L478 381L173 381L173 656L90 656ZM177 725L213 699L323 792L327 792L437 699L473 725L368 838L282 838Z" />
<glyph glyph-name="hcircumflex" unicode="&#x0125;" horiz-adv-x="544" d="M82 0L164 0L164 352C213 401 247 427 297 427C361 427 389 388 389 297L389 0L471 0L471 308C471 432 425 498 323 498C256 498 207 462 161 418L164 518L164 712L82 712ZM-24 767L12 741L122 834L126 834L236 741L272 767L167 880L81 880Z" />
<glyph glyph-name="Hbar" unicode="&#x0126;" horiz-adv-x="687" d="M32 492L110 492L110 0L193 0L193 309L498 309L498 0L582 0L582 492L654 492L654 539L582 539L582 656L498 656L498 539L193 539L193 656L110 656L110 539L32 534ZM193 381L193 492L498 492L498 381Z" />
<glyph glyph-name="hbar" unicode="&#x0127;" horiz-adv-x="544" d="M82 0L164 0L164 313C213 362 247 387 297 387C361 387 389 349 389 258L389 0L471 0L471 269C471 393 425 459 323 459C256 459 207 422 161 378L164 478L164 571L346 571L346 619L164 619L164 712L82 712L82 619L8 614L8 571L82 571Z" />
<glyph glyph-name="Itilde" unicode="&#x0128;" horiz-adv-x="263" d="M90 0L173 0L173 656L90 656ZM206 709C266 709 304 755 308 832L252 836C247 793 229 770 204 770C157 770 131 841 56 841C-4 841 -42 794 -46 718L10 714C14 757 33 780 58 780C105 780 131 709 206 709Z" />
<glyph glyph-name="itilde" unicode="&#x0129;" horiz-adv-x="246" d="M82 0L164 0L164 486L82 486ZM195 577C264 577 293 635 296 712L241 716C238 670 224 637 195 637C148 637 122 721 51 721C-18 721 -47 663 -50 585L5 582C8 629 22 661 52 661C98 661 124 577 195 577Z" />
<glyph glyph-name="Imacron" unicode="&#x012a;" horiz-adv-x="263" d="M90 0L173 0L173 656L90 656ZM-3 735L265 735L265 792L-3 792Z" />
<glyph glyph-name="imacron" unicode="&#x012b;" horiz-adv-x="246" d="M82 0L164 0L164 486L82 486ZM-10 601L256 601L256 658L-10 658Z" />
<glyph glyph-name="uni012C" unicode="&#x012c;" horiz-adv-x="263" d="M90 0L173 0L173 656L90 656ZM131 705C224 705 269 764 277 834L227 842C219 795 188 758 131 758C74 758 43 795 35 842L-15 834C-7 764 38 705 131 705Z" />
<glyph glyph-name="uni012D" unicode="&#x012d;" horiz-adv-x="246" d="M82 0L164 0L164 486L82 486ZM124 571C231 571 275 648 280 722L229 730C221 679 189 626 124 626C59 626 27 679 19 730L-32 722C-27 648 17 571 124 571Z" />
<glyph glyph-name="Iogonek" unicode="&#x012e;" horiz-adv-x="263" d="M139 -212C165 -212 199 -199 219 -184L196 -139C184 -148 171 -153 155 -153C132 -153 108 -138 108 -107C108 -66 132 -32 173 0L173 656L90 656L90 0L110 0C78 -29 43 -68 43 -125C43 -182 86 -212 139 -212Z" />
<glyph glyph-name="iogonek" unicode="&#x012f;" horiz-adv-x="246" d="M129 -206C154 -206 188 -194 207 -179L186 -138C173 -146 161 -151 146 -151C121 -151 99 -136 99 -105C99 -66 124 -29 164 0L164 486L82 486L82 0L102 0C74 -28 38 -67 38 -121C38 -177 78 -206 129 -206ZM123 586C154 586 179 608 179 639C179 671 154 692 123 692C91 692 66 671 66 639C66 608 91 586 123 586Z" />
<glyph glyph-name="Idotaccent" unicode="&#x0130;" horiz-adv-x="263" d="M90 0L173 0L173 656L90 656ZM131 714C163 714 188 736 188 768C188 799 163 821 131 821C99 821 74 799 74 768C74 736 99 714 131 714Z" />
<glyph glyph-name="dotlessi" unicode="&#x0131;" horiz-adv-x="246" d="M82 0L164 0L164 486L82 486Z" />
<glyph glyph-name="uni0132" unicode="&#x0132;" horiz-adv-x="526" d="M90 0L173 0L173 656L90 656ZM302 -165C398 -165 436 -102 436 -3L436 656L353 656L353 0C353 -59 341 -96 292 -96C275 -96 259 -91 246 -87L230 -153C247 -159 272 -165 302 -165Z" />
<glyph glyph-name="uni0133" unicode="&#x0133;" horiz-adv-x="493" d="M82 0L164 0L164 486L82 486ZM124 586C156 586 181 608 181 639C181 671 156 692 124 692C92 692 67 671 67 639C67 608 92 586 124 586ZM278 -217C375 -217 411 -154 411 -55L411 486L329 486L329 -55C329 -114 317 -150 269 -150C252 -150 235 -146 223 -142L206 -204C223 -211 248 -217 278 -217ZM371 586C402 586 427 608 427 639C427 671 402 692 371 692C339 692 314 671 314 639C314 608 339 586 371 586Z" />
<glyph glyph-name="Jcircumflex" unicode="&#x0134;" horiz-adv-x="480" d="M212 -12C340 -12 393 80 393 193L393 656L309 656L309 201C309 101 274 61 204 61C157 61 120 83 91 135L31 93C69 24 129 -12 212 -12ZM200 725L236 699L346 792L350 792L460 699L496 725L391 838L305 838Z" />
<glyph glyph-name="jcircumflex" unicode="&#x0135;" horiz-adv-x="247" d="M32 -217C129 -217 165 -154 165 -55L165 486L83 486L83 -55C83 -114 71 -150 23 -150C6 -150 -11 -146 -23 -142L-40 -204C-23 -211 2 -217 32 -217ZM-31 600L4 568L122 681L126 681L244 568L279 600L165 740L83 740Z" />
<glyph glyph-name="uni0136" unicode="&#x0136;" horiz-adv-x="579" d="M90 0L173 0L173 208L286 341L482 0L575 0L338 406L543 656L449 656L176 327L173 327L173 656L90 656ZM239 -226C345 -221 404 -193 404 -135C404 -90 374 -68 287 -58L269 -96C315 -100 340 -112 340 -138C340 -165 315 -180 231 -186Z" />
<glyph glyph-name="uni0137" unicode="&#x0137;" horiz-adv-x="495" d="M82 0L163 0L163 128L254 234L396 0L486 0L301 291L464 486L373 486L166 230L163 230L163 712L82 712ZM184 -226C290 -221 349 -193 349 -135C349 -90 319 -68 232 -58L214 -96C260 -100 285 -112 285 -138C285 -165 260 -180 176 -186Z" />
<glyph glyph-name="kgreenlandic" unicode="&#x0138;" horiz-adv-x="495" d="M82 0L164 0L164 125L254 231L396 0L486 0L303 291L464 486L373 486L167 228L164 228L164 486L82 486Z" />
<glyph glyph-name="Lacute" unicode="&#x0139;" horiz-adv-x="486" d="M90 0L460 0L460 71L173 71L173 656L90 656ZM117 697L269 812L222 867L80 739Z" />
<glyph glyph-name="lacute" unicode="&#x013a;" horiz-adv-x="255" d="M169 -12C191 -12 205 -9 216 -4L205 58C196 56 192 56 187 56C175 56 164 66 164 92L164 712L82 712L82 98C82 27 107 -12 169 -12ZM102 749L254 864L207 919L65 791Z" />
<glyph glyph-name="uni013B" unicode="&#x013b;" horiz-adv-x="486" d="M90 0L460 0L460 71L173 71L173 656L90 656ZM201 -226C307 -221 366 -193 366 -135C366 -90 336 -68 249 -58L231 -96C277 -100 302 -112 302 -138C302 -165 277 -180 193 -186Z" />
<glyph glyph-name="uni013C" unicode="&#x013c;" horiz-adv-x="255" d="M169 -12C191 -12 205 -9 216 -4L205 58C196 56 192 56 187 56C175 56 164 66 164 92L164 712L82 712L82 98C82 27 107 -12 169 -12ZM71 -226C177 -221 236 -193 236 -135C236 -90 206 -68 119 -58L101 -96C147 -100 172 -112 172 -138C172 -165 147 -180 63 -186Z" />
<glyph glyph-name="Lcaron" unicode="&#x013d;" horiz-adv-x="486" d="M90 0L460 0L460 71L173 71L173 656L90 656ZM334 514L374 514L388 669L389 726L330 726Z" />
<glyph glyph-name="lcaron" unicode="&#x013e;" horiz-adv-x="270" d="M169 -12C191 -12 205 -9 216 -4L205 58C196 56 192 56 187 56C175 56 164 66 164 92L164 712L82 712L82 98C82 27 107 -12 169 -12ZM221 548L261 548L275 703L276 760L217 760Z" />
<glyph glyph-name="Ldot" unicode="&#x013f;" horiz-adv-x="486" d="M90 0L460 0L460 71L173 71L173 656L90 656ZM377 263C409 263 436 289 436 325C436 363 409 389 377 389C344 389 317 363 317 325C317 289 344 263 377 263Z" />
<glyph glyph-name="ldot" unicode="&#x0140;" horiz-adv-x="362" d="M169 -12C191 -12 205 -9 216 -4L205 58C196 56 192 56 187 56C175 56 164 66 164 92L164 712L82 712L82 98C82 27 107 -12 169 -12ZM304 263C336 263 363 289 363 325C363 363 336 389 304 389C271 389 244 363 244 325C244 289 271 263 304 263Z" />
<glyph glyph-name="Lslash" unicode="&#x0141;" horiz-adv-x="489" d="M24 200L95 240L95 0L465 0L465 71L178 71L178 277L384 387L354 440L178 345L178 656L95 656L95 308L-6 253Z" />
<glyph glyph-name="lslash" unicode="&#x0142;" horiz-adv-x="262" d="M173 -12C195 -12 209 -9 220 -4L209 58C200 56 196 56 191 56C179 56 168 66 168 92L168 374L252 426L222 479L168 444L168 712L86 712L86 401L-1 348L29 295L86 331L86 98C86 27 111 -12 173 -12Z" />
<glyph glyph-name="Nacute" unicode="&#x0143;" horiz-adv-x="647" d="M90 0L169 0L169 343C169 412 163 482 158 548L162 548L233 413L471 0L557 0L557 656L478 656L478 317C478 248 484 174 488 108L484 108L413 244L176 656L90 656ZM310 697L462 812L415 867L273 739Z" />
<glyph glyph-name="nacute" unicode="&#x0144;" horiz-adv-x="547" d="M82 0L164 0L164 352C213 401 247 427 297 427C361 427 389 388 389 297L389 0L471 0L471 308C471 432 425 498 323 498C256 498 206 462 160 416L157 416L150 486L82 486ZM278 573L435 726L377 781L236 614Z" />
<glyph glyph-name="uni0145" unicode="&#x0145;" horiz-adv-x="647" d="M90 0L169 0L169 343C169 412 163 482 158 548L162 548L233 413L471 0L557 0L557 656L478 656L478 317C478 248 484 174 488 108L484 108L413 244L176 656L90 656ZM241 -226C347 -221 406 -193 406 -135C406 -90 376 -68 289 -58L271 -96C317 -100 342 -112 342 -138C342 -165 317 -180 233 -186Z" />
<glyph glyph-name="uni0146" unicode="&#x0146;" horiz-adv-x="547" d="M82 0L164 0L164 352C213 401 247 427 297 427C361 427 389 388 389 297L389 0L471 0L471 308C471 432 425 498 323 498C256 498 206 462 160 416L157 416L150 486L82 486ZM192 -226C298 -221 357 -193 357 -135C357 -90 327 -68 240 -58L222 -96C268 -100 293 -112 293 -138C293 -165 268 -180 184 -186Z" />
<glyph glyph-name="Ncaron" unicode="&#x0147;" horiz-adv-x="647" d="M90 0L169 0L169 343C169 412 163 482 158 548L162 548L233 413L471 0L557 0L557 656L478 656L478 317C478 248 484 174 488 108L484 108L413 244L176 656L90 656ZM284 706L370 706L475 819L439 845L329 753L325 753L215 845L179 819Z" />
<glyph glyph-name="ncaron" unicode="&#x0148;" horiz-adv-x="547" d="M82 0L164 0L164 352C213 401 247 427 297 427C361 427 389 388 389 297L389 0L471 0L471 308C471 432 425 498 323 498C256 498 206 462 160 416L157 416L150 486L82 486ZM251 574L333 574L447 714L412 746L294 633L290 633L172 746L137 714Z" />
<glyph glyph-name="napostrophe" unicode="&#x0149;" horiz-adv-x="775" d="M304 0L386 0L386 352C435 401 469 427 519 427C583 427 611 388 611 297L611 0L693 0L693 308C693 432 647 498 545 498C478 498 428 462 382 416L379 416L372 486L304 486ZM86 431C155 471 193 528 193 608C193 666 169 699 130 699C99 699 77 678 77 643C77 611 102 593 130 593C133 593 135 593 138 594C138 537 113 502 63 469Z" />
<glyph glyph-name="uni014A" unicode="&#x014a;" horiz-adv-x="635" d="M406 -12C513 -12 583 83 583 335C583 580 486 668 356 668C287 668 218 628 171 575L171 656L90 656L90 0L173 0L173 497C213 554 283 595 335 595C432 595 497 532 497 335C497 127 452 67 398 67C377 67 362 71 348 78L328 3C346 -7 380 -12 406 -12Z" />
<glyph glyph-name="uni014B" unicode="&#x014b;" horiz-adv-x="547" d="M338 -183C435 -183 471 -120 471 -21L471 308C471 432 425 498 323 498C256 498 206 462 160 416L157 416L150 486L82 486L82 0L164 0L164 352C213 401 247 427 297 427C361 427 389 388 389 297L389 -20C389 -80 377 -116 329 -116C312 -116 295 -111 283 -107L267 -170C283 -177 308 -183 338 -183Z" />
<glyph glyph-name="Omacron" unicode="&#x014c;" horiz-adv-x="664" d="M332 -12C497 -12 613 120 613 331C613 540 497 668 332 668C167 668 52 541 52 331C52 120 167 -12 332 -12ZM332 61C215 61 138 167 138 331C138 494 215 595 332 595C449 595 526 494 526 331C526 167 449 61 332 61ZM198 735L466 735L466 792L198 792Z" />
<glyph glyph-name="omacron" unicode="&#x014d;" horiz-adv-x="542" d="M271 -12C390 -12 496 81 496 242C496 405 390 498 271 498C152 498 46 405 46 242C46 81 152 -12 271 -12ZM271 56C188 56 131 131 131 242C131 354 188 430 271 430C355 430 411 354 411 242C411 131 355 56 271 56ZM138 601L404 601L404 658L138 658Z" />
<glyph glyph-name="uni014E" unicode="&#x014e;" horiz-adv-x="664" d="M332 -12C497 -12 613 120 613 331C613 540 497 668 332 668C167 668 52 541 52 331C52 120 167 -12 332 -12ZM332 61C215 61 138 167 138 331C138 494 215 595 332 595C449 595 526 494 526 331C526 167 449 61 332 61ZM332 705C425 705 470 764 478 834L428 842C420 795 389 758 332 758C275 758 244 795 236 842L186 834C194 764 239 705 332 705Z" />
<glyph glyph-name="uni014F" unicode="&#x014f;" horiz-adv-x="542" d="M271 -12C390 -12 496 81 496 242C496 405 390 498 271 498C152 498 46 405 46 242C46 81 152 -12 271 -12ZM271 56C188 56 131 131 131 242C131 354 188 430 271 430C355 430 411 354 411 242C411 131 355 56 271 56ZM271 571C378 571 422 648 427 722L376 730C368 679 336 626 271 626C206 626 174 679 166 730L115 722C120 648 164 571 271 571Z" />
<glyph glyph-name="Ohungarumlaut" unicode="&#x0150;" horiz-adv-x="664" d="M332 -12C497 -12 613 120 613 331C613 540 497 668 332 668C167 668 52 541 52 331C52 120 167 -12 332 -12ZM332 61C215 61 138 167 138 331C138 494 215 595 332 595C449 595 526 494 526 331C526 167 449 61 332 61ZM230 724L273 703L378 844L322 876ZM390 724L433 703L538 844L482 876Z" />
<glyph glyph-name="ohungarumlaut" unicode="&#x0151;" horiz-adv-x="542" d="M271 -12C390 -12 496 81 496 242C496 405 390 498 271 498C152 498 46 405 46 242C46 81 152 -12 271 -12ZM271 56C188 56 131 131 131 242C131 354 188 430 271 430C355 430 411 354 411 242C411 131 355 56 271 56ZM220 568L320 733L261 761L175 589ZM371 568L470 733L412 761L325 589Z" />
<glyph glyph-name="OE" unicode="&#x0152;" horiz-adv-x="847" d="M369 0L798 0L798 71L510 71L510 309L742 309L742 380L510 380L510 586L788 586L788 656L373 656C170 656 52 539 52 331C52 122 170 0 369 0ZM379 68C221 68 138 164 138 331C138 497 221 588 379 588L427 588L427 68Z" />
<glyph glyph-name="oe" unicode="&#x0153;" horiz-adv-x="839" d="M264 -12C344 -12 405 29 443 109C480 34 546 -12 622 -12C688 -12 740 11 782 38L752 95C716 72 678 55 632 55C549 55 483 122 479 223L798 223C800 235 801 251 801 269C801 408 733 498 613 498C542 498 479 452 442 376C407 455 340 498 266 498C148 498 46 405 46 242C46 81 147 -12 264 -12ZM266 56C186 56 130 131 130 242C130 354 186 430 266 430C346 430 402 354 402 242C402 131 346 56 266 56ZM479 278C488 373 544 433 611 433C685 433 729 378 729 278Z" />
<glyph glyph-name="Racute" unicode="&#x0154;" horiz-adv-x="569" d="M90 0L173 0L173 277L292 277L450 0L544 0L377 286C467 308 525 370 525 472C525 608 429 656 295 656L90 656ZM173 345L173 589L283 589C385 589 442 558 442 472C442 387 385 345 283 345ZM271 697L423 812L376 867L234 739Z" />
<glyph glyph-name="racute" unicode="&#x0155;" horiz-adv-x="347" d="M82 0L164 0L164 312C197 394 246 424 287 424C307 424 318 421 334 416L350 488C334 495 319 498 298 498C243 498 193 459 160 398L157 398L150 486L82 486ZM204 573L361 726L303 781L162 614Z" />
<glyph glyph-name="uni0156" unicode="&#x0156;" horiz-adv-x="569" d="M90 0L173 0L173 277L292 277L450 0L544 0L377 286C467 308 525 370 525 472C525 608 429 656 295 656L90 656ZM173 345L173 589L283 589C385 589 442 558 442 472C442 387 385 345 283 345ZM217 -226C323 -221 382 -193 382 -135C382 -90 352 -68 265 -58L247 -96C293 -100 318 -112 318 -138C318 -165 293 -180 209 -186Z" />
<glyph glyph-name="uni0157" unicode="&#x0157;" horiz-adv-x="347" d="M82 0L164 0L164 312C197 394 246 424 287 424C307 424 318 421 334 416L350 488C334 495 319 498 298 498C243 498 193 459 160 398L157 398L150 486L82 486ZM34 -226C140 -221 199 -193 199 -135C199 -90 169 -68 82 -58L64 -96C110 -100 135 -112 135 -138C135 -165 110 -180 26 -186Z" />
<glyph glyph-name="Rcaron" unicode="&#x0158;" horiz-adv-x="569" d="M90 0L173 0L173 277L292 277L450 0L544 0L377 286C467 308 525 370 525 472C525 608 429 656 295 656L90 656ZM173 345L173 589L283 589C385 589 442 558 442 472C442 387 385 345 283 345ZM245 706L331 706L436 819L400 845L290 753L286 753L176 845L140 819Z" />
<glyph glyph-name="rcaron" unicode="&#x0159;" horiz-adv-x="347" d="M82 0L164 0L164 312C197 394 246 424 287 424C307 424 318 421 334 416L350 488C334 495 319 498 298 498C243 498 193 459 160 398L157 398L150 486L82 486ZM177 574L259 574L373 714L338 746L220 633L216 633L98 746L63 714Z" />
<glyph glyph-name="Sacute" unicode="&#x015a;" horiz-adv-x="534" d="M272 -12C410 -12 495 71 495 175C495 272 436 317 360 350L267 390C215 412 158 436 158 499C158 558 207 595 280 595C341 595 389 571 429 533L474 587C427 635 358 668 280 668C161 668 74 594 74 494C74 398 145 351 207 325L301 284C363 256 410 235 410 168C410 104 359 61 273 61C205 61 139 94 92 143L42 85C99 26 180 -12 272 -12ZM262 697L414 812L367 867L225 739Z" />
<glyph glyph-name="sacute" unicode="&#x015b;" horiz-adv-x="419" d="M209 -12C324 -12 387 54 387 133C387 225 309 254 239 280C184 301 131 318 131 364C131 401 159 434 220 434C263 434 298 416 331 391L370 443C333 473 280 498 219 498C114 498 52 438 52 360C52 278 128 245 197 220C250 200 308 178 308 128C308 86 276 52 212 52C154 52 111 76 69 110L28 55C74 17 140 -12 209 -12ZM206 573L363 726L305 781L164 614Z" />
<glyph glyph-name="Scircumflex" unicode="&#x015c;" horiz-adv-x="534" d="M272 -12C410 -12 495 71 495 175C495 272 436 317 360 350L267 390C215 412 158 436 158 499C158 558 207 595 280 595C341 595 389 571 429 533L474 587C427 635 358 668 280 668C161 668 74 594 74 494C74 398 145 351 207 325L301 284C363 256 410 235 410 168C410 104 359 61 273 61C205 61 139 94 92 143L42 85C99 26 180 -12 272 -12ZM131 725L167 699L277 792L281 792L391 699L427 725L322 838L236 838Z" />
<glyph glyph-name="scircumflex" unicode="&#x015d;" horiz-adv-x="419" d="M209 -12C324 -12 387 54 387 133C387 225 309 254 239 280C184 301 131 318 131 364C131 401 159 434 220 434C263 434 298 416 331 391L370 443C333 473 280 498 219 498C114 498 52 438 52 360C52 278 128 245 197 220C250 200 308 178 308 128C308 86 276 52 212 52C154 52 111 76 69 110L28 55C74 17 140 -12 209 -12ZM65 600L100 568L218 681L222 681L340 568L375 600L261 740L179 740Z" />
<glyph glyph-name="uni015E" unicode="&#x015e;" horiz-adv-x="534" d="M186 -226C292 -221 351 -193 351 -135C351 -94 324 -75 278 -64L301 -11C422 0 495 79 495 175C495 272 436 317 360 350L267 390C215 412 158 436 158 499C158 558 207 595 280 595C341 595 389 571 429 533L474 587C427 635 358 668 280 668C161 668 74 594 74 494C74 398 145 351 207 325L301 284C363 256 410 235 410 168C410 104 359 61 273 61C205 61 139 94 92 143L42 85C94 31 165 -5 247 -11L210 -88C267 -96 287 -110 287 -136C287 -165 262 -180 178 -186Z" />
<glyph glyph-name="uni015F" unicode="&#x015f;" horiz-adv-x="419" d="M135 -226C241 -221 300 -193 300 -135C300 -94 273 -75 227 -64L251 -9C339 5 387 64 387 133C387 225 309 254 239 280C184 301 131 318 131 364C131 401 159 434 220 434C263 434 298 416 331 391L370 443C333 473 280 498 219 498C114 498 52 438 52 360C52 278 128 245 197 220C250 200 308 178 308 128C308 86 276 52 212 52C154 52 111 76 69 110L28 55C71 19 132 -8 196 -12L159 -88C216 -96 236 -110 236 -136C236 -165 211 -180 127 -186Z" />
<glyph glyph-name="Scaron" unicode="&#x0160;" horiz-adv-x="534" d="M272 -12C410 -12 495 71 495 175C495 272 436 317 360 350L267 390C215 412 158 436 158 499C158 558 207 595 280 595C341 595 389 571 429 533L474 587C427 635 358 668 280 668C161 668 74 594 74 494C74 398 145 351 207 325L301 284C363 256 410 235 410 168C410 104 359 61 273 61C205 61 139 94 92 143L42 85C99 26 180 -12 272 -12ZM236 706L322 706L427 819L391 845L281 753L277 753L167 845L131 819Z" />
<glyph glyph-name="scaron" unicode="&#x0161;" horiz-adv-x="419" d="M209 -12C324 -12 387 54 387 133C387 225 309 254 239 280C184 301 131 318 131 364C131 401 159 434 220 434C263 434 298 416 331 391L370 443C333 473 280 498 219 498C114 498 52 438 52 360C52 278 128 245 197 220C250 200 308 178 308 128C308 86 276 52 212 52C154 52 111 76 69 110L28 55C74 17 140 -12 209 -12ZM179 574L261 574L375 714L340 746L222 633L218 633L100 746L65 714Z" />
<glyph glyph-name="uni0162" unicode="&#x0162;" horiz-adv-x="536" d="M226 0L245 0L202 -88C259 -96 279 -110 279 -136C279 -165 254 -180 170 -186L178 -226C284 -221 343 -193 343 -135C343 -94 316 -75 270 -64L298 0L310 0L310 586L508 586L508 656L28 656L28 586L226 586Z" />
<glyph glyph-name="uni0163" unicode="&#x0163;" horiz-adv-x="338" d="M130 -226C236 -221 295 -193 295 -135C295 -94 268 -75 222 -64L245 -12C272 -10 301 -2 325 6L309 68C293 62 271 55 254 55C198 55 179 89 179 149L179 419L310 419L310 486L179 486L179 622L110 622L100 486L24 481L24 419L96 419L96 150C96 68 121 8 193 -8L154 -88C211 -96 231 -110 231 -136C231 -165 206 -180 122 -186Z" />
<glyph glyph-name="Tcaron" unicode="&#x0164;" horiz-adv-x="536" d="M226 0L310 0L310 586L508 586L508 656L28 656L28 586L226 586ZM224 706L310 706L415 819L379 845L269 753L265 753L155 845L119 819Z" />
<glyph glyph-name="tcaron" unicode="&#x0165;" horiz-adv-x="338" d="M235 -12C265 -12 298 -3 325 6L309 68C293 62 271 55 254 55C198 55 179 89 179 149L179 419L310 419L310 486L179 486L179 622L110 622L100 486L24 481L24 419L96 419L96 150C96 54 131 -12 235 -12ZM256 548L296 548L310 703L311 760L252 760Z" />
<glyph glyph-name="uni0166" unicode="&#x0166;" horiz-adv-x="536" d="M226 0L310 0L310 313L433 313L433 360L310 360L310 586L508 586L508 656L28 656L28 586L226 586L226 360L191 360L103 357L103 313L226 313Z" />
<glyph glyph-name="uni0167" unicode="&#x0167;" horiz-adv-x="338" d="M24 231L96 231L96 150C96 54 131 -12 235 -12C265 -12 298 -3 325 6L309 68C293 62 271 55 254 55C198 55 179 89 179 149L179 231L310 231L310 279L179 279L179 419L310 419L310 486L179 486L179 622L110 622L100 486L24 481L24 419L96 419L96 279L24 274Z" />
<glyph glyph-name="Utilde" unicode="&#x0168;" horiz-adv-x="645" d="M323 -12C457 -12 558 60 558 271L558 656L478 656L478 269C478 111 410 61 323 61C237 61 170 111 170 269L170 656L87 656L87 271C87 60 189 -12 323 -12ZM398 709C458 709 496 755 500 832L444 836C439 793 421 770 396 770C349 770 323 841 248 841C188 841 150 794 146 718L202 714C206 757 225 780 250 780C297 780 323 709 398 709Z" />
<glyph glyph-name="utilde" unicode="&#x0169;" horiz-adv-x="544" d="M224 -12C291 -12 339 23 384 76L387 76L394 0L462 0L462 486L380 486L380 141C334 84 299 59 249 59C185 59 158 98 158 189L158 486L75 486L75 178C75 54 121 -12 224 -12ZM344 577C413 577 442 635 445 712L390 716C387 670 373 637 344 637C297 637 271 721 200 721C131 721 102 663 99 585L154 582C157 629 171 661 201 661C247 661 273 577 344 577Z" />
<glyph glyph-name="Umacron" unicode="&#x016a;" horiz-adv-x="645" d="M323 -12C457 -12 558 60 558 271L558 656L478 656L478 269C478 111 410 61 323 61C237 61 170 111 170 269L170 656L87 656L87 271C87 60 189 -12 323 -12ZM189 735L457 735L457 792L189 792Z" />
<glyph glyph-name="umacron" unicode="&#x016b;" horiz-adv-x="544" d="M224 -12C291 -12 339 23 384 76L387 76L394 0L462 0L462 486L380 486L380 141C334 84 299 59 249 59C185 59 158 98 158 189L158 486L75 486L75 178C75 54 121 -12 224 -12ZM136 601L402 601L402 658L136 658Z" />
<glyph glyph-name="Ubreve" unicode="&#x016c;" horiz-adv-x="645" d="M323 -12C457 -12 558 60 558 271L558 656L478 656L478 269C478 111 410 61 323 61C237 61 170 111 170 269L170 656L87 656L87 271C87 60 189 -12 323 -12ZM323 705C416 705 461 764 469 834L419 842C411 795 380 758 323 758C266 758 235 795 227 842L177 834C185 764 230 705 323 705Z" />
<glyph glyph-name="ubreve" unicode="&#x016d;" horiz-adv-x="544" d="M224 -12C291 -12 339 23 384 76L387 76L394 0L462 0L462 486L380 486L380 141C334 84 299 59 249 59C185 59 158 98 158 189L158 486L75 486L75 178C75 54 121 -12 224 -12ZM272 571C379 571 423 648 428 722L377 730C369 679 337 626 272 626C207 626 175 679 167 730L116 722C121 648 165 571 272 571Z" />
<glyph glyph-name="Uring" unicode="&#x016e;" horiz-adv-x="645" d="M323 -12C457 -12 558 60 558 271L558 656L478 656L478 269C478 111 410 61 323 61C237 61 170 111 170 269L170 656L87 656L87 271C87 60 189 -12 323 -12ZM323 699C378 699 420 735 420 789C420 844 378 880 323 880C267 880 226 844 226 789C226 735 267 699 323 699ZM323 735C294 735 271 754 271 789C271 823 294 843 323 843C350 843 374 823 374 789C374 754 350 735 323 735Z" />
<glyph glyph-name="uring" unicode="&#x016f;" horiz-adv-x="544" d="M224 -12C291 -12 339 23 384 76L387 76L394 0L462 0L462 486L380 486L380 141C334 84 299 59 249 59C185 59 158 98 158 189L158 486L75 486L75 178C75 54 121 -12 224 -12ZM272 554C339 554 382 596 382 653C382 709 339 751 272 751C205 751 162 709 162 653C162 596 205 554 272 554ZM272 591C240 591 215 615 215 653C215 690 240 714 272 714C304 714 329 690 329 653C329 615 304 591 272 591Z" />
<glyph glyph-name="Uhungarumlaut" unicode="&#x0170;" horiz-adv-x="645" d="M323 -12C457 -12 558 60 558 271L558 656L478 656L478 269C478 111 410 61 323 61C237 61 170 111 170 269L170 656L87 656L87 271C87 60 189 -12 323 -12ZM221 724L264 703L369 844L313 876ZM381 724L424 703L529 844L473 876Z" />
<glyph glyph-name="uhungarumlaut" unicode="&#x0171;" horiz-adv-x="544" d="M224 -12C291 -12 339 23 384 76L387 76L394 0L462 0L462 486L380 486L380 141C334 84 299 59 249 59C185 59 158 98 158 189L158 486L75 486L75 178C75 54 121 -12 224 -12ZM221 568L321 733L262 761L176 589ZM372 568L471 733L413 761L326 589Z" />
<glyph glyph-name="Uogonek" unicode="&#x0172;" horiz-adv-x="645" d="M350 -212C377 -212 411 -199 430 -184L407 -139C395 -148 382 -153 367 -153C343 -153 319 -138 319 -107C319 -74 346 -32 398 -7C493 38 558 94 558 271L558 656L478 656L478 269C478 111 410 61 323 61C237 61 170 111 170 269L170 656L87 656L87 271C87 69 181 -8 318 -11C293 -36 254 -70 254 -125C254 -182 297 -212 350 -212Z" />
<glyph glyph-name="uogonek" unicode="&#x0173;" horiz-adv-x="544" d="M405 -206C430 -206 464 -194 483 -179L462 -138C450 -146 437 -151 421 -151C398 -151 375 -136 375 -105C375 -66 403 -29 462 0L462 486L380 486L380 141C334 84 299 59 249 59C184 59 158 98 158 189L158 486L75 486L75 178C75 54 121 -12 224 -12C291 -12 339 23 384 76L387 76L395 4C352 -27 314 -67 314 -121C314 -177 354 -206 405 -206Z" />
<glyph glyph-name="Wcircumflex" unicode="&#x0174;" horiz-adv-x="786" d="M162 0L261 0L358 395C369 446 381 493 391 544L395 544C405 493 415 446 427 395L526 0L626 0L762 656L682 656L613 299C600 229 588 158 576 87L572 87C556 158 540 230 524 299L433 656L357 656L266 299C251 229 235 158 220 87L216 87C204 158 190 228 178 299L109 656L23 656ZM245 725L281 699L391 792L395 792L505 699L541 725L436 838L350 838Z" />
<glyph glyph-name="wcircumflex" unicode="&#x0175;" horiz-adv-x="718" d="M159 0L255 0L323 260C336 306 346 352 357 401L361 401C373 352 382 307 394 261L464 0L564 0L694 486L616 486L545 205C535 159 526 115 515 70L511 70C500 115 489 159 477 205L401 486L321 486L246 205C234 160 224 115 213 70L209 70C200 115 191 159 180 205L108 486L24 486ZM205 600L240 568L358 681L362 681L480 568L515 600L401 740L319 740Z" />
<glyph glyph-name="Ycircumflex" unicode="&#x0176;" horiz-adv-x="476" d="M196 0L280 0L280 254L477 656L390 656L306 471C286 423 263 377 240 328L236 328C214 377 194 423 173 471L88 656L-1 656L196 254ZM90 725L126 699L236 792L240 792L350 699L386 725L281 838L195 838Z" />
<glyph glyph-name="ycircumflex" unicode="&#x0177;" horiz-adv-x="467" d="M90 -209C188 -209 238 -136 272 -40L455 486L375 486L288 217C275 174 261 124 247 80L243 80C228 125 211 175 196 217L97 486L12 486L207 -1L196 -37C176 -97 141 -141 86 -141C74 -141 59 -137 49 -134L33 -199C49 -205 68 -209 90 -209ZM88 600L123 568L241 681L245 681L363 568L398 600L284 740L202 740Z" />
<glyph glyph-name="Ydieresis" unicode="&#x0178;" horiz-adv-x="476" d="M196 0L280 0L280 254L477 656L390 656L306 471C286 423 263 377 240 328L236 328C214 377 194 423 173 471L88 656L-1 656L196 254ZM135 715C164 715 184 736 184 764C184 793 164 813 135 813C107 813 86 793 86 764C86 736 107 715 135 715ZM341 715C369 715 390 736 390 764C390 793 369 813 341 813C312 813 292 793 292 764C292 736 312 715 341 715Z" />
<glyph glyph-name="Zacute" unicode="&#x0179;" horiz-adv-x="539" d="M45 0L497 0L497 71L148 71L494 607L494 656L76 656L76 586L390 586L45 50ZM264 697L416 812L369 867L227 739Z" />
<glyph glyph-name="zacute" unicode="&#x017a;" horiz-adv-x="425" d="M31 0L399 0L399 67L135 67L391 442L391 486L59 486L59 419L287 419L31 44ZM215 573L372 726L314 781L173 614Z" />
<glyph glyph-name="Zdotaccent" unicode="&#x017b;" horiz-adv-x="539" d="M45 0L497 0L497 71L148 71L494 607L494 656L76 656L76 586L390 586L45 50ZM281 714C313 714 338 736 338 768C338 799 313 821 281 821C249 821 224 799 224 768C224 736 249 714 281 714Z" />
<glyph glyph-name="zdotaccent" unicode="&#x017c;" horiz-adv-x="425" d="M31 0L399 0L399 67L135 67L391 442L391 486L59 486L59 419L287 419L31 44ZM229 586C260 586 283 608 283 640C283 671 260 694 229 694C198 694 175 671 175 640C175 608 198 586 229 586Z" />
<glyph glyph-name="Zcaron" unicode="&#x017d;" horiz-adv-x="539" d="M45 0L497 0L497 71L148 71L494 607L494 656L76 656L76 586L390 586L45 50ZM238 706L324 706L429 819L393 845L283 753L279 753L169 845L133 819Z" />
<glyph glyph-name="zcaron" unicode="&#x017e;" horiz-adv-x="425" d="M31 0L399 0L399 67L135 67L391 442L391 486L59 486L59 419L287 419L31 44ZM188 574L270 574L384 714L349 746L231 633L227 633L109 746L74 714Z" />
<glyph glyph-name="uni0180" unicode="&#x0180;" horiz-adv-x="544" d="M297 -12C408 -12 507 79 507 232C507 368 440 459 314 459C260 459 206 429 162 391L164 478L164 571L346 571L346 619L164 619L164 712L82 712L82 619L8 614L8 571L82 571L82 0L148 0L155 50L158 50C201 11 252 -12 297 -12ZM283 57C251 57 207 71 164 108L164 323C210 367 253 390 294 390C386 390 422 323 422 231C422 126 363 57 283 57Z" />
<glyph glyph-name="uni018F" unicode="&#x018f;" horiz-adv-x="658" d="M327 -12C497 -12 606 112 606 330C606 548 502 668 331 668C242 668 171 636 124 591L165 534C204 572 259 599 325 599C450 599 518 511 524 350L60 350C59 341 58 332 58 325C58 119 158 -12 327 -12ZM327 57C221 57 149 141 143 286L522 286C511 137 438 57 327 57Z" />
<glyph glyph-name="uni0192" unicode="&#x0192;" horiz-adv-x="497" d="M91 -97C202 -97 242 -14 256 108L282 345L415 345L415 408L289 408L296 471C304 539 328 601 388 601C413 601 430 593 444 587L462 650C443 659 413 668 384 668C277 668 231 597 216 464L210 408L185 408L116 404L116 345L203 345L179 126C168 24 145 -30 83 -30C65 -30 49 -27 33 -20L18 -82C34 -91 60 -97 91 -97Z" />
<glyph glyph-name="uni0193" unicode="&#x0193;" horiz-adv-x="617" d="M348 -12C436 -12 508 20 550 64L550 340L335 340L335 271L474 271L474 100C448 76 403 61 356 61C216 61 138 165 138 330C138 493 223 595 355 595C421 595 463 574 496 549L542 604C520 635 510 653 510 683C510 713 529 737 563 737C577 737 586 732 597 728L613 791C597 797 578 804 551 804C483 804 438 759 438 695C438 681 440 668 444 655C418 663 388 668 353 668C179 668 52 539 52 328C52 114 175 -12 348 -12Z" />
<glyph glyph-name="Ohorn" unicode="&#x01a0;" horiz-adv-x="664" d="M335 -12C500 -12 616 120 616 331C616 452 577 545 513 603C579 620 620 658 620 725C620 755 610 783 597 805L532 777C540 761 546 739 546 719C546 673 520 648 465 637C427 657 383 668 335 668C170 668 55 541 55 331C55 120 170 -12 335 -12ZM335 61C218 61 141 167 141 331C141 494 218 595 335 595C452 595 529 494 529 331C529 167 452 61 335 61Z" />
<glyph glyph-name="ohorn" unicode="&#x01a1;" horiz-adv-x="542" d="M271 -12C390 -12 496 81 496 242C496 332 464 401 414 444C469 460 524 499 524 578C524 607 514 635 501 657L437 627C446 611 452 591 452 572C452 517 421 488 366 477C336 491 304 498 271 498C152 498 46 405 46 242C46 81 152 -12 271 -12ZM271 56C188 56 131 131 131 242C131 354 188 430 271 430C355 430 411 354 411 242C411 131 355 56 271 56Z" />
<glyph glyph-name="Uhorn" unicode="&#x01af;" horiz-adv-x="659" d="M323 -12C457 -12 558 60 558 271L558 620C623 635 674 668 674 745C674 775 665 803 651 825L586 797C595 781 601 759 601 739C601 683 566 663 511 656L478 656L478 269C478 111 410 61 323 61C237 61 170 111 170 269L170 656L87 656L87 271C87 60 189 -12 323 -12Z" />
</font>
</defs>
</svg>
